<svg clip-rule="evenodd" fill-rule="evenodd" image-rendering="optimizeQuality" shape-rendering="geometricPrecision" text-rendering="geometricPrecision" viewBox="0 0 1.27 1.27" xmlns="http://www.w3.org/2000/svg"><g id="&#x56FE;&#x5C42;_x0020_1"><path d="m0 0h1.27v1.27h-1.27z" fill="none"/><g id="_202532296" fill="#191919"><path id="_161643088" d="m.56545.04233c.07118 0 .13565.02888.18231.07554s.07554.11113.07554.18231-.02888.13565-.07554.18231-.11113.07554-.18231.07554c-.07107 0-.13549-.02888-.18216-.07554l-.00008-.00008-.00008.00008c-.04666-.04666-.07554-.11113-.07554-.18231s.02888-.13565.07554-.18231c.0008-.0008.00163-.00157.00248-.00229.04647-.04531.10994-.07325.17984-.07325zm.12245.1354c-.03133-.03133-.07463-.05072-.12245-.05072-.04693 0-.08949.01861-.12065.04879l-.00181.00193c-.03133.03133-.05072.07463-.05072.12245s.01939.09112.05072.12245l-.00008.00008c.03132.03127.07466.05064.12254.05064.04782 0 .09112-.01939.12245-.05072s.05072-.07463.05072-.12245-.01939-.09112-.05072-.12245z" fill-rule="nonzero"/><path id="_201415520" d="m.57855 1.22767h-.4515c-.01236 0-.02415-.00247-.0351-.00732-.00165-.00073-.00323-.00155-.00473-.00245-.00905-.0047-.01717-.01096-.02427-.01879l-.00008.00007c-.00827-.0091-.01436-.01952-.01818-.03106-.00377-.01135-.00509-.02328-.0039-.03552.01335-.13749.07825-.25991.17509-.34768.09599-.08701.22325-.14003.36267-.14003.09174 0 .17822.02295.25396.06344.00965.00516.01603.01321.01885.02378.00282.01058.00129.02073-.00451.03001l-.00438.00701c-.01062.01699-.03246.02285-.05016.01345-.06371-.03383-.13647-.05301-.21376-.05301-.11792 0-.22531.04463-.30611.11787-.08166.07401-.13639.17722-.14765.2931l-.00006.00112c.00002.00008.0002.00013.00066.00064l-.00008.00007.00008.00009.00035.00037.00027.00012.00104.00004h.4515.23472c.02098 0 .03809.01711.03809.03809v.0085c0 .02098-.01711.03809-.03809.03809zm-.49133-.00977c-.0092-.00551-.01568-.01413-.01867-.02389" fill-rule="nonzero"/><path id="_161645608" d="m.84618.9292h.02475.29163.02475c.02329 0 .04233.01904.04233.04234v-.00001c0 .0233-.01904.04234-.04233.04234h-.02475-.29163-.02475c-.02329 0-.04233-.01904-.04233-.04234v.00001c0-.0233.01904-.04234.04233-.04234z"/><path id="_161645776" d="m.97441 1.1421v-.02475-.29163-.02475c0-.02329.01904-.04233.04234-.04233h-.00001c.0233 0 .04234.01904.04234.04233v.02475.29163.02475c0 .02329-.01904.04233-.04234.04233h.00001c-.0233 0-.04234-.01904-.04234-.04233z"/></g></g></svg>