<svg id="Layer_1" enable-background="new 0 0 24 24" height="512" viewBox="0 0 24 24" width="512" xmlns="http://www.w3.org/2000/svg"><g><path d="m7.5 5.2c-.6 0-1-.4-1-1s.4-1 1-1 1 .4 1 1c0 .6-.4 1-1 1z"/></g><g><path d="m4.2 8.5c-.6 0-1-.4-1-1s.4-1 1-1 1 .4 1 1c0 .6-.4 1-1 1z"/></g><g><path d="m3 13c-.6 0-1-.4-1-1s.4-1 1-1 1 .4 1 1c0 .6-.4 1-1 1z"/></g><g><path d="m4.2 17.5c-.6 0-1-.4-1-1s.4-1 1-1 1 .4 1 1c0 .6-.4 1-1 1z"/></g><g><path d="m7.5 20.8c-.6 0-1-.4-1-1s.4-1 1-1 1 .4 1 1c0 .6-.4 1-1 1z"/></g><g><path d="m12 22c-.6 0-1-.4-1-1s.4-1 1-1 1 .4 1 1c0 .6-.4 1-1 1z"/></g><g><path d="m16.5 20.8c-.6 0-1-.4-1-1s.4-1 1-1 1 .4 1 1c0 .6-.4 1-1 1z"/></g><g><path d="m19.8 17.5c-.6 0-1-.4-1-1s.4-1 1-1 1 .4 1 1c0 .6-.5 1-1 1z"/></g><g><path d="m21 13c-.6 0-1-.4-1-1s.4-1 1-1 1 .4 1 1c0 .6-.4 1-1 1z"/></g><g><path d="m19.8 8.5c-.6 0-1-.4-1-1s.4-1 1-1 1 .4 1 1c0 .6-.5 1-1 1z"/></g><g><path d="m16.5 5.2c-.6 0-1-.4-1-1s.4-1 1-1 1 .4 1 1c0 .6-.4 1-1 1z"/></g><g><path d="m12 4c-.6 0-1-.4-1-1s.4-1 1-1 1 .4 1 1c0 .6-.4 1-1 1z"/></g></svg>