<svg id="Layer_1" enable-background="new 0 0 62 62" height="512" viewBox="0 0 62 62" width="512" xmlns="http://www.w3.org/2000/svg"><path d="m12.774 52.41h-1.624v-1.636c0-.552-.448-1-1-1s-1 .448-1 1v1.636h-1.623c-.552 0-1 .448-1 1s.448 1 1 1h1.623v1.637c0 .552.448 1 1 1s1-.448 1-1v-1.637h1.624c.552 0 1-.448 1-1s-.447-1-1-1z" fill="#448af9"/><ellipse cx="51.516" cy="8.447" fill="#fff" rx="2.604" ry="2.617"/><path d="m51.516 12.063c-1.987 0-3.604-1.623-3.604-3.617s1.617-3.616 3.604-3.616 3.604 1.622 3.604 3.616-1.617 3.617-3.604 3.617zm0-5.233c-.885 0-1.604.725-1.604 1.616 0 .892.72 1.617 1.604 1.617s1.604-.725 1.604-1.617c0-.891-.72-1.616-1.604-1.616z" fill="#448af9"/><path d="m31 15.483v31.034" fill="#fff"/><path d="m31 47.517c-.552 0-1-.448-1-1v-31.034c0-.552.448-1 1-1s1 .448 1 1v31.034c0 .552-.448 1-1 1z" fill="#1b2a37"/><path d="m15.483 31h31.034" fill="#fff"/><path d="m46.518 32h-31.035c-.552 0-1-.448-1-1s.448-1 1-1h31.035c.553 0 1 .448 1 1s-.448 1-1 1z" fill="#1b2a37"/><circle cx="31" cy="31" fill="#d2e2fe" r="8.276"/><path d="m31 40.276c-5.115 0-9.276-4.161-9.276-9.276s4.161-9.276 9.276-9.276c5.114 0 9.275 4.161 9.275 9.276s-4.161 9.276-9.275 9.276zm0-16.552c-4.012 0-7.276 3.264-7.276 7.276s3.264 7.276 7.276 7.276 7.275-3.264 7.275-7.276-3.263-7.276-7.275-7.276z" fill="#448af9"/><circle cx="31" cy="6.172" fill="#fff" r="5.172"/><path d="m31 12.345c-3.403 0-6.172-2.769-6.172-6.172s2.769-6.173 6.172-6.173 6.173 2.769 6.173 6.172-2.77 6.173-6.173 6.173zm0-10.345c-2.301 0-4.172 1.872-4.172 4.172s1.872 4.172 4.172 4.172 4.173-1.872 4.173-4.172-1.872-4.172-4.173-4.172z" fill="#1b2a37"/><circle cx="6.172" cy="31" fill="#fff" r="5.172"/><path d="m6.172 37.172c-3.403 0-6.172-2.769-6.172-6.172s2.769-6.172 6.172-6.172 6.172 2.769 6.172 6.172-2.768 6.172-6.172 6.172zm0-10.344c-2.3 0-4.172 1.871-4.172 4.172s1.872 4.172 4.172 4.172 4.172-1.872 4.172-4.172-1.871-4.172-4.172-4.172z" fill="#1b2a37"/><circle cx="31" cy="55.828" fill="#fff" r="5.172"/><path d="m31 62c-3.403 0-6.172-2.769-6.172-6.172s2.769-6.172 6.172-6.172 6.173 2.769 6.173 6.172-2.77 6.172-6.173 6.172zm0-10.345c-2.301 0-4.172 1.872-4.172 4.172s1.871 4.173 4.172 4.173 4.173-1.872 4.173-4.172-1.872-4.173-4.173-4.173z" fill="#1b2a37"/><circle cx="55.828" cy="31" fill="#fff" r="5.172"/><path d="m55.827 37.172c-3.403 0-6.172-2.769-6.172-6.172s2.769-6.172 6.172-6.172 6.173 2.769 6.173 6.172-2.77 6.172-6.173 6.172zm0-10.344c-2.301 0-4.172 1.872-4.172 4.172s1.871 4.172 4.172 4.172 4.173-1.871 4.173-4.172-1.872-4.172-4.173-4.172z" fill="#1b2a37"/></svg>