<svg id="Layer_1" enable-background="new 0 0 124 124" height="512" viewBox="0 0 124 124" width="512" xmlns="http://www.w3.org/2000/svg"><path d="m79.73 74.545c.848.949 2.312.987 3.207.084l9.417-9.492c.805-.811.805-2.127 0-2.939l-8.475-8.547c-.726-.732-1.895-.91-2.728-.305-1.062.771-1.15 2.273-.264 3.166l5.032 5.075-59.826-.016c-.195-1.24-.559-2.422-1.071-3.523l61.6-28.193-3.21 7.078c-.563 1.242.226 2.678 1.569 2.855.87.115 1.714-.352 2.085-1.154l5.599-12.105c.473-1.044.017-2.277-1.018-2.754l-10.897-5.026c-.934-.431-2.091-.187-2.663.673-.729 1.096-.292 2.535.847 3.06l6.885 3.176-63.151 28.903c-2.396-2.554-5.778-4.159-9.532-4.159-7.243 0-13.136 5.943-13.136 13.248s5.893 13.248 13.136 13.248c3.758 0 7.143-1.608 9.539-4.167l63.153 29.025-6.894 3.179c-1.054.486-1.517 1.741-1.035 2.804.484 1.067 1.737 1.532 2.792 1.038l10.957-5.134c1.035-.477 1.491-1.711 1.018-2.754l-5.012-11.048c-.522-1.149-1.948-1.588-3.036-.855-.852.575-1.096 1.739-.669 2.68l2.669 5.885-61.591-28.308c.51-1.099.872-2.278 1.067-3.515l59.713.015-5.956 5.687c-.871.834-.925 2.216-.121 3.115zm-66.594-1.804c-4.97 0-9.013-4.078-9.013-9.091 0-5.012 4.043-9.091 9.013-9.091s9.014 4.078 9.014 9.091-4.044 9.091-9.014 9.091z"/><path d="m110.864 35.495c7.243 0 13.136-5.943 13.136-13.248 0-7.304-5.893-13.247-13.136-13.247s-13.135 5.943-13.135 13.247c-.001 7.305 5.891 13.248 13.135 13.248zm0-22.338c4.97 0 9.014 4.078 9.014 9.091s-4.043 9.091-9.014 9.091c-4.969 0-9.013-4.078-9.013-9.091s4.043-9.091 9.013-9.091z"/><path d="m110.864 88.505c-7.243 0-13.135 5.943-13.135 13.248 0 7.304 5.892 13.247 13.135 13.247s13.136-5.943 13.136-13.247c0-7.305-5.893-13.248-13.136-13.248zm0 22.338c-4.969 0-9.013-4.078-9.013-9.091s4.043-9.091 9.013-9.091 9.014 4.078 9.014 9.091c-.001 5.013-4.044 9.091-9.014 9.091z"/><path d="m110.864 50.402c-7.243 0-13.135 5.943-13.135 13.247 0 7.305 5.892 13.248 13.135 13.248s13.136-5.943 13.136-13.248c0-7.304-5.893-13.247-13.136-13.247zm0 22.339c-4.969 0-9.013-4.078-9.013-9.091 0-5.012 4.043-9.091 9.013-9.091s9.014 4.078 9.014 9.091c-.001 5.013-4.044 9.091-9.014 9.091z"/></svg>