<svg fill="none" height="20" viewBox="0 0 20 20" width="20" xmlns="http://www.w3.org/2000/svg"><g fill="rgb(0,0,0)"><path d="m14.6659 3.60354c.1952-.19526.5118-.19526.7071 0l1.0607 1.06066c.1952.19526.1952.51184 0 .70711l-.9572.95711-1.7677-1.76777z"/><path d="m13.0017 5.26776 1.7677 1.76777-3.8306 3.83057c-.3588.3589-.8406.5679-1.34785.5847l-.77201.0256c-.14452.0048-.26295-.1136-.25816-.2581l.02562-.7721c.01682-.50717.22584-.98901.58468-1.34786z"/><path d="m5 7.24999c0-1.24265 1.00736-2.25 2.25-2.25h1.83c.41421 0 .75-.33579.75-.75 0-.41422-.33579-.75-.75-.75h-1.83c-2.07107 0-3.75 1.67893-3.75 3.75v5.50001c0 2.0711 1.67893 3.75 3.75 3.75h5.5c2.0711 0 3.75-1.6789 3.75-3.75v-1.83c0-.4142-.3358-.75-.75-.75s-.75.3358-.75.75v1.83c0 1.2426-1.0074 2.25-2.25 2.25h-5.5c-1.24264 0-2.25-1.0074-2.25-2.25z"/></g></svg>