<svg clip-rule="evenodd" fill-rule="evenodd" height="512" stroke-linejoin="round" stroke-miterlimit="2" viewBox="0 0 24 24" width="512" xmlns="http://www.w3.org/2000/svg"><g id="Icon"><path d="m20.25 14.5c0-3.086 0-4.936 0-6.086 0-.464-.184-.909-.513-1.237-1.018-1.018-4.396-4.396-5.414-5.414-.328-.329-.773-.513-1.237-.513-1.27 0-5.17 0-7.586 0-.729 0-1.429.29-1.945.805-.515.516-.805 1.216-.805 1.945v16c0 .729.29 1.429.805 1.945.516.515 1.216.805 1.945.805h9c.414 0 .75-.336.75-.75s-.336-.75-.75-.75h-9c-.332 0-.649-.132-.884-.366-.234-.235-.366-.552-.366-.884v-16c0-.332.132-.649.366-.884.235-.234.552-.366.884-.366h7.586c.066 0 .13.026.177.073l5.414 5.414c.047.047.073.111.073.177v6.086c0 .414.336.75.75.75s.75-.336.75-.75z"/><path d="m12.75 2.5v3.5c0 1.519 1.231 2.75 2.75 2.75h3.5c.414 0 .75-.336.75-.75s-.336-.75-.75-.75h-3.5c-.69 0-1.25-.56-1.25-1.25v-3.5c0-.414-.336-.75-.75-.75s-.75.336-.75.75z"/><path d="m21 18.25h-5c-.414 0-.75.336-.75.75s.336.75.75.75h5c.414 0 .75-.336.75-.75s-.336-.75-.75-.75z"/><path d="m18.47 17.53 1.469 1.47s-1.469 1.47-1.469 1.47c-.293.292-.293.768 0 1.06.292.293.768.293 1.06 0l2-2c.293-.293.293-.767 0-1.06l-2-2c-.292-.293-.768-.293-1.06 0-.293.292-.293.768 0 1.06z"/></g></svg>