<?xml version="1.0" encoding="UTF-8"?>
<svg id="Layer_1" data-name="Layer 1" xmlns="http://www.w3.org/2000/svg" viewBox="0 0 98.23 104.28">
  <defs>
    <style>
      .cls-1 {
        fill: #009eff;
        stroke-width: 0px;
      }
    </style>
  </defs>
  <path class="cls-1" d="m49.19,87.22c5.88-5.22,12.86-4.22,18.24-.29,2.25,1.65,4.39,3.44,6.65,5.09,4,2.9,8.28,4.89,13.35,4.32,2.98-.25,5.69-1.85,7.35-4.34,1.19-1.77,1-2.5-.41-4-.39-.42-.22-1.36-.31-2.06.81-.07,2-.5,2.35-.13.87.8,1.48,1.85,1.74,3,.45,3.26-1.08,5.89-3.3,8.12-3.26,3.25-7.38,4.91-11.75,6-9.41,2.31-18.57,1.69-27.24-2.86-2.34-1.38-4.61-2.88-6.79-4.5-4.55,4.22-10.25,7.01-16.38,8-8.09,1.58-16.47.52-23.92-3-2.71-1.17-5.07-3.03-6.84-5.4-1.54-2.17-2.47-4.6-1.58-7.32.36-1.13,1-2.27,2.3-2.39.68-.04,1.33.25,1.76.77.15.66-.04,1.34-.49,1.84-1.4,1.4-1.65,2-.58,3.7,2.13,3.46,5.39,4.86,9.34,4.68,5.34-.24,9.66-2.85,13.73-6,2-1.65,4.1-3.17,6.29-4.56,4.77-2.95,11.39-3.51,16.49,1.33Z"/>
  <path class="cls-1" d="m23.8,53.12c6.79,0,12.29,1.76,17.73,3.72,1.56.56,3.13,1.12,4.72,1.55,3.08.83,6,.1,8.88-1,4.41-1.88,9.02-3.22,13.75-4,6.55-.82,13.2.22,19.18,3,1.2.53,2.35,1.19,3.55,1.72.8.23,1.27,1.06,1.05,1.86-.01.05-.03.09-.05.14-3.79,13.7-16.44,20.36-27.79,17.24-4.63-1.14-8.38-4.52-10-9-.86-2.28-2.46-2.82-4.41-3.13-.87-.13-1.77-.13-2.64,0-1.85.1-3.47,1.27-4.14,3-3.41,7.6-9.9,10.5-17.39,9.71-10.46-1.11-17-7.23-20.44-16.91-.78-2.19-.68-2.24,1.4-3.38,5.09-2.81,10.78-4.36,16.6-4.52Zm2.2,1.88c-1.18.06-2.35.07-3.52.18-4.09.32-8.1,1.34-11.86,3-1.16.54-1.87,1.37-1.57,2.65.26,1.79.78,3.53,1.54,5.17,3.95,7,10.35,10,18.07,10,8.16.03,14.81-6.56,14.84-14.72,0-.19,0-.39,0-.58,0-.49-.22-.96-.6-1.27-5.39-2.43-10.82-4.61-16.89-4.43Zm44.61,0c-4.25-.2-9.79,2-15.27,4.41-.39.23-.65.63-.68,1.08.32,6,2.5,11,8.1,13.83,5,2.55,10.15,2.07,15.2.06,5.56-2.22,9.37-6.12,10.94-12,.67-2.52.23-3.34-2.12-4.38-4.52-2-9.31-2.85-16.15-3h-.02Zm-17.61,8.23l-.26-2.81h-7.37v2.81h7.63Z"/>
  <path class="cls-1" d="m22.2,39.65c9.86.54,18.15,2,26,5.37.53.19,1.11.19,1.64,0,7.85-3.2,16.21-4.97,24.68-5.22,3.13,0,6.26.17,9.37.51.36,0,.68.5,1,.77-.38.18-.78.57-1.13.52-10.76-1.6-21.12.22-31.22,3.86-2.26.87-4.76.84-7-.08-9.87-3.78-20.5-5.12-31-3.88-.37,0-.79-.26-1.19-.41.34-.27.66-.74,1-.78,3.05-.31,6.13-.52,7.85-.66Z"/>
  <path class="cls-1" d="m50,12.17v10.55c0,.48-.5,1-.78,1.42-.22-.46-.65-.91-.65-1.37-.07-7.13-.1-14.26-.1-21.4,0-.46.49-.91.75-1.37.28.44.79.87.8,1.32.07,3.61,0,7.23,0,10.85h-.02Z"/>
  <path class="cls-1" d="m59.5,26.38c.92,2.48-.81,6.58-3.55,8.88-3.43,2.81-8.26,3.17-12.07.89-3.52-2.12-5.6-6-4.86-9.64,1.3,6,4.31,10,10.66,9.84,6.07-.19,8.72-4.35,9.82-9.97Z"/>
  <path class="cls-1" d="m44.15,21.19c-.13.44-.21.9-.23,1.36-.02,1.74.16,3.48.56,5.17.62,2.07,2.59,3.43,4.74,3.28,2.16.11,4.13-1.25,4.78-3.31.4-1.79.6-3.62.58-5.45-.02-.47-.1-.94-.24-1.39,1.8,1.3,1.75,6.26.08,8.61-1.85,2.83-5.64,3.63-8.47,1.78-.02-.01-.04-.03-.06-.04-3.18-2.33-3.95-6.75-1.74-10.01Z"/>
  <path class="cls-1" d="m40.64,63.21c-.81-.13-1.61-.23-2.41-.38-7.53-1.35-15.23-1.33-22.75.06-.46-.01-.91-.1-1.34-.27.37-.3.71-.77,1.12-.85,7.95-1.76,16.19-1.76,24.14,0,.54.19,1.06.45,1.55.76l-.31.68Z"/>
  <path class="cls-1" d="m83.56,63.19c-8.59-1.81-17.46-1.81-26.05,0-.58-.91-.08-1.19.69-1.36,5.44-1.25,11.04-1.64,16.59-1.13,2.66.24,5.3.78,7.94,1.24.41.08.77.48,1.16.74l-.33.51Z"/>
</svg>