<svg id="Layer_1" enable-background="new 0 0 74 74" height="512" viewBox="0 0 74 74" width="512" xmlns="http://www.w3.org/2000/svg"><g><g><path d="m37 48.6v20.15l-17.97-8.62v-20.15z" fill="#f28827"/></g><g><path d="m54.97 39.98v20.15l-17.97 8.62v-20.15z" fill="#e2741a"/></g><g><path d="m37 69.25c-.07 0-.15-.02-.22-.05l-17.97-8.62c-.17-.08-.28-.26-.28-.45v-20.15c0-.17.09-.33.23-.42.15-.09.33-.1.48-.03l17.97 8.62c.17.08.28.26.28.45v20.15c0 .17-.09.33-.23.42-.07.05-.17.08-.26.08zm-17.47-9.43 16.97 8.14v-19.05l-16.97-8.14z"/></g><g><path d="m37 69.25c-.09 0-.19-.03-.27-.08-.15-.09-.23-.25-.23-.42v-20.15c0-.19.11-.37.28-.45l17.97-8.62c.16-.07.34-.06.48.03.15.09.23.25.23.42v20.15c0 .19-.11.37-.28.45l-17.96 8.62c-.07.03-.15.05-.22.05zm.5-20.34v19.05l16.97-8.14v-19.05z"/></g><g><path d="m54.97 39.98-17.97 8.62-17.97-8.62 17.97-8.63z" fill="#ffd7a3"/></g><g><path d="m37 49.1c-.07 0-.15-.02-.22-.05l-17.97-8.62c-.17-.08-.28-.26-.28-.45s.11-.37.28-.45l17.97-8.63c.14-.07.3-.07.43 0l17.97 8.63c.17.08.28.26.28.45s-.11.37-.28.45l-17.97 8.62c-.06.03-.14.05-.21.05zm-16.82-9.12 16.82 8.06 16.82-8.06-16.82-8.07z"/></g><g><path d="m37 31.36 6.71-7.86 17.97 8.62-6.71 7.86z" fill="#f93"/></g><g><path d="m19.03 39.98-6.71-7.86 17.97-8.62 6.71 7.86z" fill="#f28827"/></g><g><path d="m54.97 40.48c-.07 0-.15-.02-.22-.05l-17.97-8.62c-.14-.07-.24-.2-.27-.35s.01-.31.11-.43l6.71-7.85c.15-.17.39-.23.6-.13l17.97 8.62c.14.07.24.2.27.35s-.01.31-.11.43l-6.71 7.85c-.09.12-.23.18-.38.18zm-17.17-9.29 17.04 8.17 6.04-7.07-17.04-8.17z"/></g><g><path d="m19.03 40.48c-.14 0-.28-.06-.38-.18l-6.71-7.85c-.1-.12-.14-.28-.11-.43s.13-.28.27-.35l17.97-8.62c.2-.1.45-.05.6.13l6.71 7.85c.1.12.14.28.11.43s-.13.28-.27.35l-17.97 8.62c-.08.03-.15.05-.22.05zm-5.91-8.19 6.04 7.07 17.04-8.17-6.04-7.07z"/></g><g><g><path d="m45.59 39.02c-.04 0-.08-.01-.13-.02-.28-.07-.45-.35-.38-.63 1.56-6.25 4.72-12.02 9.15-16.7.2-.21.53-.22.73-.02.21.2.22.53.02.73-4.3 4.55-7.38 10.16-8.9 16.24-.05.25-.26.4-.49.4z"/></g><g><path d="m38.78 37.47c-.01 0-.02 0-.02 0-.29-.01-.51-.25-.5-.54.36-8.19 2.11-16.18 5.21-23.77.11-.26.41-.39.68-.28.26.11.39.41.28.68-3.06 7.47-4.78 15.35-5.14 23.42 0 .27-.23.49-.51.49z"/></g><g><path d="m28.41 39.02c-.23 0-.44-.16-.5-.39-1.52-6.08-4.59-11.69-8.9-16.24-.2-.21-.19-.54.02-.73.21-.2.54-.19.73.02 4.43 4.68 7.59 10.45 9.15 16.7.07.28-.1.56-.38.63-.03.01-.08.01-.12.01z"/></g><g><path d="m35.22 37.47c-.28 0-.51-.22-.52-.5-.35-8.07-2.08-15.95-5.14-23.42-.11-.27.02-.57.28-.68s.57.02.68.28c3.1 7.58 4.85 15.58 5.21 23.77.01.29-.21.53-.5.54.01.01 0 .01-.01.01z"/></g></g><g><g><path d="m53.76 13.64c-1.61 1.62-1.61 4.25.01 5.86l-.01.01c-1.61-1.61-4.24-1.61-5.85 0l-.01-.01c1.61-1.61 1.61-4.24 0-5.85l.01-.01c1.61 1.61 4.23 1.61 5.85 0z"/></g><g><path d="m26.11 19.5c-1.62-1.61-4.25-1.61-5.86.01l-.01-.01c1.61-1.61 1.61-4.24 0-5.85l.01-.01c1.61 1.61 4.24 1.61 5.85 0l.01.01c-1.62 1.61-1.62 4.24 0 5.85z"/></g><g><path d="m41.14 8.89v.01c-2.28 0-4.14 1.86-4.14 4.14 0-2.28-1.86-4.14-4.14-4.14v-.01c2.28 0 4.14-1.86 4.14-4.14h.01c0 2.28 1.85 4.14 4.13 4.14z"/></g><g><path d="m49.56 7.21c-.13.13-.35.13-.48 0l-1.55-1.55c-.13-.13-.13-.35 0-.48s.35-.13.48 0l1.55 1.55c.13.13.13.34 0 .48z"/></g><g><path d="m52.67 10.32c-.13.13-.35.13-.48 0l-1.55-1.55c-.13-.13-.13-.35 0-.48s.35-.13.48 0l1.55 1.55c.14.14.14.35 0 .48z"/></g><g><path d="m52.67 5.65-1.55 1.55c-.13.13-.35.13-.48 0s-.13-.35 0-.48l1.55-1.55c.13-.13.35-.13.48 0 .14.14.14.35 0 .48z"/></g><g><path d="m49.56 8.77-1.55 1.55c-.13.13-.35.13-.48 0s-.13-.35 0-.48l1.55-1.55c.13-.13.35-.13.48 0s.13.35 0 .48z"/></g><g><path d="m61.4 24.19c-.13.13-.35.13-.48 0l-1.55-1.55c-.13-.13-.13-.35 0-.48s.35-.13.48 0l1.55 1.55c.13.13.13.35 0 .48z"/></g><g><path d="m64.51 27.3c-.13.13-.35.13-.48 0l-1.55-1.55c-.13-.13-.13-.35 0-.48s.35-.13.48 0l1.55 1.55c.13.14.13.35 0 .48z"/></g><g><path d="m64.51 22.64-1.55 1.55c-.13.13-.35.13-.48 0s-.13-.35 0-.48l1.55-1.55c.13-.13.35-.13.48 0s.13.34 0 .48z"/></g><g><path d="m61.4 25.75-1.55 1.55c-.13.13-.35.13-.48 0s-.13-.35 0-.48l1.55-1.55c.13-.13.35-.13.48 0 .13.14.13.35 0 .48z"/></g><g><path d="m11.52 24.19c-.13.13-.35.13-.48 0l-1.55-1.55c-.13-.13-.13-.35 0-.48s.35-.13.48 0l1.55 1.55c.13.13.13.35 0 .48z"/></g><g><path d="m14.63 27.3c-.13.13-.35.13-.48 0l-1.55-1.55c-.13-.13-.13-.35 0-.48s.35-.13.48 0l1.55 1.55c.14.14.14.35 0 .48z"/></g><g><path d="m14.63 22.64-1.55 1.55c-.13.13-.35.13-.48 0s-.13-.35 0-.48l1.55-1.55c.13-.13.35-.13.48 0 .14.13.14.34 0 .48z"/></g><g><path d="m11.52 25.75-1.55 1.55c-.13.13-.35.13-.48 0s-.13-.35 0-.48l1.55-1.55c.13-.13.35-.13.48 0 .13.14.13.35 0 .48z"/></g><g><path d="m24.8 7.65c-.13.13-.35.13-.48 0l-1.55-1.55c-.13-.13-.13-.35 0-.48s.35-.13.48 0l1.55 1.55c.13.13.13.35 0 .48z"/></g><g><path d="m27.91 10.77c-.13.13-.35.13-.48 0l-1.55-1.55c-.13-.13-.13-.35 0-.48s.35-.13.48 0l1.55 1.55c.14.13.14.34 0 .48z"/></g><g><path d="m27.91 6.1-1.55 1.55c-.13.13-.35.13-.48 0s-.13-.35 0-.48l1.55-1.55c.13-.13.35-.13.48 0 .14.13.14.35 0 .48z"/></g><g><path d="m24.8 9.21-1.55 1.55c-.13.13-.35.13-.48 0s-.13-.35 0-.48l1.55-1.55c.13-.13.35-.13.48 0s.13.35 0 .48z"/></g></g><g><path d="m37 48.6-6.71 7.85-17.97-8.62 6.71-7.85z" fill="#f93"/></g><g><path d="m54.97 39.98 6.71 7.85-17.97 8.62-6.71-7.85z" fill="#f28827"/></g><g><path d="m30.29 56.95c-.07 0-.15-.02-.22-.05l-17.97-8.62c-.14-.07-.24-.2-.27-.35s.01-.31.11-.43l6.71-7.85c.15-.17.39-.22.6-.13l17.97 8.62c.14.07.24.2.27.35s-.01.31-.11.43l-6.71 7.85c-.1.12-.24.18-.38.18zm-17.17-9.29 17.04 8.17 6.04-7.07-17.04-8.17z"/></g><g><path d="m43.71 56.95c-.14 0-.28-.06-.38-.18l-6.71-7.85c-.1-.12-.14-.28-.11-.43s.13-.28.27-.35l17.97-8.62c.2-.1.45-.05.6.13l6.71 7.85c.1.12.14.28.11.43s-.13.28-.27.35l-17.97 8.62c-.07.03-.15.05-.22.05zm-5.91-8.19 6.04 7.07 17.04-8.17-6.04-7.07z"/></g></g></svg>