<svg id="Line" height="512" viewBox="0 0 64 64" width="512" xmlns="http://www.w3.org/2000/svg"><path d="m51.97852 20.37646s-.12695 0-.12695 0v-11.26611c0-2.81787-2.29297-5.11035-5.11035-5.11035-2.34338 0-4.30286 1.58856-4.90845 3.73694l-3.22632 2.60974c-6.13635 4.96866-13.86622 7.68511-21.75659 7.69384 0 .00001-7.84985.00001-7.84985.00001-2.75684 0-5 2.24316-5 5v10.72021c0 2.75684 2.24316 5 5 5h2.75977v15.23926c-.02272 3.68889 3.28615 6.37274 6.88091 5.99988 1.65425.00012 2.99995-1.34559 2.99995-2.99988v-17.90143c6.18408.86676 12.0799 3.39777 16.96582 7.34967l3.22754 2.61121c.60657 2.14551 2.56396 3.73157 4.91699 3.73157 2.8125 0 5.10059-2.29199 5.10059-5.10938v-11.2627c10.71979-.29176 10.85987-15.57503.12695-16.04248zm-32.3379 36.62354c0 .55176-.44824 1-1 1h-.87988c-2.20605 0-4.00098-1.79395-4.00098-4v-15.23926c1.68954.02801 4.22514-.06023 5.88085.1145 0-.00005 0 18.12476 0 18.12476zm2-19.92346v-10.77087c0-.55225-.44727-1-1-1s-1 .44775-1 1v10.5658c-1.93941-.19501-8.5954-.08363-10.64063-.11074-1.65429.00002-2.99999-1.34568-2.99999-2.99998v-10.72021c0-1.6543 1.3457-3 3-3 2.09301-.02605 8.67128.08223 10.64061-.11657.00001-.00001.00001 1.3817.00001 1.3817 0 .55225.44727 1 1 1s1-.44775 1-1v-1.58685c6.64203-.87946 12.98169-3.57758 18.22363-7.81744 0 0 1.75684-1.42108 1.75684-1.42108v35.83466l-1.75684-1.42139c-5.24127-4.23962-11.58093-6.93756-18.22363-7.81702zm30.33789-2.65759h-1.12695c-.55344-.00012-1.00119.44872-1 1.00195v12.26074c-.11906 4.09343-6.09881 4.12354-6.23047-.00007v-38.57122c.12675-4.09398 6.09684-4.12483 6.23047.00007 0-.00007 0 21.31047 0 21.31047.02153 1.31408 1.97839 1.31448 2-.00004v-8.04439c8.05464.1319 8.17545 11.74521.12695 12.04248z"/></svg>