<svg id="Layer_1" viewBox="0 0 512 512" xmlns="http://www.w3.org/2000/svg" data-name="Layer 1"><path d="m493.772 224.9-67.693-73.281a45.758 45.758 0 0 0 -33.709-14.747h-340.478a45.836 45.836 0 0 0 -45.892 45.802v146.652a45.836 45.836 0 0 0 45.892 45.8h340.478a46.014 46.014 0 0 0 33.709-14.656l67.693-73.37a45.658 45.658 0 0 0 0-62.2zm-46.808 59.356a28.991 28.991 0 1 1 29.036-29.034 29.025 29.025 0 0 1 -29.036 29.036z" fill="#f91f3e"/><g fill="#fff"><path d="m97.56 221.63 33.836 51.2v-51.674q0-5.038 2.165-7.559a7.3 7.3 0 0 1 5.837-2.518 7.53 7.53 0 0 1 5.984 2.518q2.195 2.523 2.2 7.559v68.329q0 11.439-9.482 11.436a12.6 12.6 0 0 1 -4.267-.68 10.827 10.827 0 0 1 -3.556-2.164 20.766 20.766 0 0 1 -3.081-3.467q-1.422-1.986-2.845-4.061l-33.017-50.608v50.908q0 4.978-2.308 7.527a7.659 7.659 0 0 1 -5.926 2.545 7.562 7.562 0 0 1 -5.989-2.576q-2.254-2.576-2.249-7.5v-67.024a18.9 18.9 0 0 1 .948-6.695 9.538 9.538 0 0 1 3.734-4.357 10.144 10.144 0 0 1 5.627-1.69 9.205 9.205 0 0 1 7.022 2.844 21.238 21.238 0 0 1 2.608 3.382q1.335 2.073 2.759 4.325z"/><path d="m222.263 226.134h-39.646v21.334h36.506q4.032 0 6.016 1.807a6.139 6.139 0 0 1 1.986 4.768 6.383 6.383 0 0 1 -1.955 4.831q-1.959 1.872-6.047 1.869h-36.506v24.712h41.01q4.146 0 6.253 1.927a6.622 6.622 0 0 1 2.1 5.126 6.478 6.478 0 0 1 -2.1 5q-2.108 1.932-6.253 1.928h-47.827q-5.75 0-8.266-2.55t-2.518-8.238v-65.301a14.652 14.652 0 0 1 1.127-6.194 6.976 6.976 0 0 1 3.525-3.494 14.791 14.791 0 0 1 6.132-1.095h46.462q4.206 0 6.253 1.865a6.3 6.3 0 0 1 2.044 4.888 6.372 6.372 0 0 1 -2.044 4.947q-2.046 1.872-6.252 1.87z"/><path d="m305.665 285.75-14.049-52.093-14.223 52.093q-1.657 5.931-2.634 8.507a11.3 11.3 0 0 1 -3.409 4.62 9.7 9.7 0 0 1 -6.458 2.044 10.607 10.607 0 0 1 -5.363-1.212 9.318 9.318 0 0 1 -3.408-3.439 21.349 21.349 0 0 1 -2.133-5.27q-.833-3.052-1.485-5.662l-14.461-58.489a34.351 34.351 0 0 1 -1.3-7.765 7.65 7.65 0 0 1 2.37-5.689 8.063 8.063 0 0 1 5.869-2.312q4.8 0 6.458 3.081a34.891 34.891 0 0 1 2.9 8.95l11.378 50.729 12.743-47.468a76.167 76.167 0 0 1 2.549-8.3 11.934 11.934 0 0 1 3.672-4.92 10.679 10.679 0 0 1 6.933-2.075 10.124 10.124 0 0 1 6.906 2.165 11.792 11.792 0 0 1 3.408 4.709q.946 2.55 2.549 8.418l12.859 47.468 11.379-50.729a61.588 61.588 0 0 1 1.57-6.221 9.931 9.931 0 0 1 2.549-4.03 7.168 7.168 0 0 1 5.242-1.78 8.164 8.164 0 0 1 5.841 2.281 7.581 7.581 0 0 1 2.4 5.72 37.2 37.2 0 0 1 -1.3 7.765l-14.46 58.489q-1.482 5.931-2.46 8.686a11.609 11.609 0 0 1 -3.319 4.83 9.645 9.645 0 0 1 -6.61 2.071 9.81 9.81 0 0 1 -6.459-2.012 10.876 10.876 0 0 1 -3.377-4.536q-.947-2.516-2.667-8.624z"/></g></svg>