<?xml version="1.0" encoding="UTF-8"?>
<svg xmlns="http://www.w3.org/2000/svg" xmlns:xlink="http://www.w3.org/1999/xlink" version="1.1" id="Capa_1" x="0px" y="0px" viewBox="0 0 512 512" style="enable-background:new 0 0 512 512;" xml:space="preserve" width="512" height="512">
<g>
	<path style="fill:none;stroke:#000000;stroke-width:15;stroke-linecap:round;stroke-linejoin:round;stroke-miterlimit:10;" d="&#10;&#9;&#9;M450.45,107.702l18.179-18.179c7.826-7.826,20.515-7.826,28.341,0l0,0c7.826,7.826,7.826,20.515,0,28.341L275.908,338.926&#10;&#9;&#9;c-7.826,7.826-20.515,7.826-28.341,0l0,0c-7.826-7.826-7.826-20.515,0-28.341l181.176-181.176"/>
	<path style="fill:none;stroke:#000000;stroke-width:15;stroke-linecap:round;stroke-linejoin:round;stroke-miterlimit:10;" d="&#10;&#9;&#9;M437.453,222.727l62.351-62.351c6.261-6.261,6.261-16.412,0-22.673l-39.678-39.678"/>
	
		<line style="fill:none;stroke:#000000;stroke-width:15;stroke-linecap:round;stroke-linejoin:round;stroke-miterlimit:10;" x1="324.088" y1="290.746" x2="295.747" y2="262.405"/>
	
		<line style="fill:none;stroke:#000000;stroke-width:15;stroke-linecap:round;stroke-linejoin:round;stroke-miterlimit:10;" x1="346.761" y1="268.073" x2="318.42" y2="239.732"/>
	
		<line style="fill:none;stroke:#000000;stroke-width:15;stroke-linecap:round;stroke-linejoin:round;stroke-miterlimit:10;" x1="230.562" y1="355.931" x2="247.567" y2="338.926"/>
	<path style="fill:none;stroke:#000000;stroke-width:15;stroke-linecap:round;stroke-linejoin:round;stroke-miterlimit:10;" d="&#10;&#9;&#9;M280.048,376.493v20.406c0,17.368-14.08,31.448-31.448,31.448H38.948c-17.368,0-31.448-14.08-31.448-31.448V187.246&#10;&#9;&#9;c0-17.368,14.08-31.448,31.448-31.448H248.6c17.368,0,31.448,14.08,31.448,31.448v44.304"/>
	
		<polyline style="fill:none;stroke:#000000;stroke-width:15;stroke-linecap:round;stroke-linejoin:round;stroke-miterlimit:10;" points="&#10;&#9;&#9;63.613,300.089 119.726,356.202 231.952,243.976 &#9;"/>
</g>















</svg>
