<svg id="Layer_1" data-name="Layer 1" xmlns="http://www.w3.org/2000/svg" viewBox="0 0 597.87 104.26"><defs><style>.cls-1{fill:#009eff;}</style></defs><title>perfect-parts-logo-v3</title><path class="cls-1" d="M49.19,87.22C55.07,82,62.05,83,67.43,86.93c2.25,1.65,4.39,3.44,6.65,5.09,4,2.9,8.28,4.89,13.35,4.32A9.8,9.8,0,0,0,94.78,92c1.19-1.77,1-2.5-.41-4-.39-.42-.22-1.36-.31-2.06.81-.07,2-.5,2.35-.13a5.8,5.8,0,0,1,1.74,3c.45,3.26-1.08,5.89-3.3,8.12-3.26,3.25-7.38,4.91-11.75,6-9.41,2.31-18.57,1.69-27.24-2.86a78.89,78.89,0,0,1-6.79-4.5,31.47,31.47,0,0,1-16.38,8,38.66,38.66,0,0,1-23.92-3,16.91,16.91,0,0,1-6.84-5.4C.39,93-.54,90.57.35,87.85c.36-1.13,1-2.27,2.3-2.39a2.11,2.11,0,0,1,1.76.77,2.06,2.06,0,0,1-.49,1.84c-1.4,1.4-1.65,2-.58,3.7,2.13,3.46,5.39,4.86,9.34,4.68,5.34-.24,9.66-2.85,13.73-6a63.7,63.7,0,0,1,6.29-4.56C37.47,82.94,44.09,82.38,49.19,87.22Z"/><path class="cls-1" d="M23.8,53.12c6.79,0,12.29,1.76,17.73,3.72,1.56.56,3.13,1.12,4.72,1.55,3.08.83,6,.1,8.88-1a59.81,59.81,0,0,1,13.75-4,35.15,35.15,0,0,1,19.18,3c1.2.53,2.35,1.19,3.55,1.72a1.51,1.51,0,0,1,1,2c-3.79,13.7-16.44,20.36-27.79,17.24a14.26,14.26,0,0,1-10-9c-.86-2.28-2.46-2.82-4.41-3.13a8.66,8.66,0,0,0-2.64,0,4.7,4.7,0,0,0-4.14,3c-3.41,7.6-9.9,10.5-17.39,9.71-10.46-1.11-17-7.23-20.44-16.91-.78-2.19-.68-2.24,1.4-3.38A36.34,36.34,0,0,1,23.8,53.12ZM26,55c-1.18.06-2.35.07-3.52.18a36.34,36.34,0,0,0-11.86,3c-1.16.54-1.87,1.37-1.57,2.65A19,19,0,0,0,10.59,66C14.54,73,20.94,76,28.66,76a14.78,14.78,0,0,0,14.83-15.3,1.62,1.62,0,0,0-.6-1.27C37.5,57,32.07,54.82,26,55Zm44.61,0c-4.25-.2-9.79,2-15.27,4.41a1.37,1.37,0,0,0-.68,1.08c.32,6,2.5,11,8.1,13.83,5,2.55,10.15,2.07,15.2.06,5.56-2.22,9.37-6.12,10.94-12,.67-2.52.23-3.34-2.12-4.38C82.26,56,77.47,55.15,70.63,55ZM53,63.23l-.26-2.81H45.37v2.81Z"/><path class="cls-1" d="M22.2,39.65c9.86.54,18.15,2,26,5.37a2.38,2.38,0,0,0,1.64,0,70.75,70.75,0,0,1,24.68-5.22,84.18,84.18,0,0,1,9.37.51c.36,0,.68.5,1,.77-.38.18-.78.57-1.13.52C73,40,62.64,41.82,52.54,45.46a9.45,9.45,0,0,1-7-.08,65.24,65.24,0,0,0-31-3.88c-.37,0-.79-.26-1.19-.41.34-.27.66-.74,1-.78C17.4,40,20.48,39.79,22.2,39.65Z"/><path class="cls-1" d="M50,12.17c0,3.51,0,7,0,10.55,0,.48-.5,1-.78,1.42-.22-.46-.65-.91-.65-1.37q-.1-10.69-.1-21.4c0-.46.49-.91.75-1.37.28.44.79.87.8,1.32.07,3.61,0,7.23,0,10.85Z"/><path class="cls-1" d="M59.5,26.38c.92,2.48-.81,6.58-3.55,8.88a10.53,10.53,0,0,1-12.07.89c-3.52-2.12-5.6-6-4.86-9.64,1.3,6,4.31,10,10.66,9.84C55.75,36.16,58.4,32,59.5,26.38Z"/><path class="cls-1" d="M44.15,21.19a5.53,5.53,0,0,0-.23,1.36,21.46,21.46,0,0,0,.56,5.17A4.61,4.61,0,0,0,49.22,31,4.75,4.75,0,0,0,54,27.69a23.89,23.89,0,0,0,.58-5.45,5.87,5.87,0,0,0-.24-1.39c1.8,1.3,1.75,6.26.08,8.61a6.12,6.12,0,0,1-8.53,1.74A7.32,7.32,0,0,1,44.15,21.19Z"/><path class="cls-1" d="M40.64,63.21c-.81-.13-1.61-.23-2.41-.38a63.48,63.48,0,0,0-22.75.06,3.9,3.9,0,0,1-1.34-.27c.37-.3.71-.77,1.12-.85a55.84,55.84,0,0,1,24.14,0,7.42,7.42,0,0,1,1.55.76Z"/><path class="cls-1" d="M83.56,63.19a63,63,0,0,0-26.05,0c-.58-.91-.08-1.19.69-1.36a52.6,52.6,0,0,1,16.59-1.13c2.66.24,5.3.78,7.94,1.24.41.08.77.48,1.16.74Z"/><path class="cls-1" d="M143.59,83.59v19.87H129.47V44.9h23.37a27.19,27.19,0,0,1,11.88,2.48,18.61,18.61,0,0,1,8,7,19.26,19.26,0,0,1,2.84,10.36,17,17,0,0,1-6.13,13.69q-6.13,5.13-16.83,5.13Zm0-10.9h9.25c2.73,0,4.82-.68,6.25-2a7.64,7.64,0,0,0,2.15-5.79A9.43,9.43,0,0,0,159,58.3a7.83,7.83,0,0,0-6-2.5h-9.41Z"/><path class="cls-1" d="M203,104.26q-10,0-16.21-6t-6.19-15.54V81.62a26.68,26.68,0,0,1,2.47-11.78,18,18,0,0,1,7.22-7.9,21.73,21.73,0,0,1,11.26-2.8q9.17,0,14.48,5.69t5.31,15.87V86h-27a9.78,9.78,0,0,0,3.18,5.76,9.45,9.45,0,0,0,6.35,2.09A12.19,12.19,0,0,0,214,89.3l6.19,7.32a17.32,17.32,0,0,1-7.18,5.57A24.28,24.28,0,0,1,203,104.26ZM201.46,69.6q-6,0-7.08,7.88h13.67v-1a6.68,6.68,0,0,0-1.64-5A6.56,6.56,0,0,0,201.46,69.6Z"/><path class="cls-1" d="M253.1,72.21l-4.47-.32q-6.39,0-8.2,4v27.55H226.88V59.94h12.7l.45,5.59q3.41-6.39,9.53-6.39a13.26,13.26,0,0,1,3.78.48Z"/><path class="cls-1" d="M261.78,103.46V69.36h-6.31V59.94h6.31V56.49q0-7.44,4.39-11.55t12.3-4.1a26.69,26.69,0,0,1,6.36.85l0,10a12.48,12.48,0,0,0-3.34-.36q-6.15,0-6.15,5.31v3.33h8.48v9.42h-8.48v34.1Z"/><path class="cls-1" d="M308.72,104.26q-10,0-16.21-6t-6.19-15.54V81.62a26.68,26.68,0,0,1,2.47-11.78,18,18,0,0,1,7.22-7.9,21.7,21.7,0,0,1,11.26-2.8q9.17,0,14.48,5.69t5.3,15.87V86H300.11a9.78,9.78,0,0,0,3.18,5.76,9.45,9.45,0,0,0,6.35,2.09A12.19,12.19,0,0,0,319.7,89.3l6.19,7.32a17.32,17.32,0,0,1-7.18,5.57A24.28,24.28,0,0,1,308.72,104.26ZM307.19,69.6q-6,0-7.08,7.88h13.67v-1a6.64,6.64,0,0,0-1.65-5A6.52,6.52,0,0,0,307.19,69.6Z"/><path class="cls-1" d="M350.9,93.81a6,6,0,0,0,4.43-1.55,5.69,5.69,0,0,0,1.52-4.32h12.71a15.07,15.07,0,0,1-5.12,11.74q-5.13,4.57-13.22,4.58-9.48,0-15-6t-5.47-16.49v-.56a26.5,26.5,0,0,1,2.44-11.64,17.68,17.68,0,0,1,7-7.77,21,21,0,0,1,10.85-2.71q8.49,0,13.48,4.71t5,12.74H356.85a7.45,7.45,0,0,0-1.64-5.18,5.69,5.69,0,0,0-4.43-1.81q-5.26,0-6.15,6.71a47,47,0,0,0-.28,5.87q0,6.55,1.57,9.09A5.41,5.41,0,0,0,350.9,93.81Z"/><path class="cls-1" d="M391.08,49.13V59.94h7.16v9.42h-7.16v19.9a5.07,5.07,0,0,0,.88,3.42c.59.64,1.76,1,3.5,1a18.9,18.9,0,0,0,3.38-.25v9.7a25.25,25.25,0,0,1-7.64,1.16q-7,0-10.34-3.29t-3.33-10V69.36H372V59.94h5.55V49.13Z"/><path class="cls-1" d="M418.31,83.59v19.87H404.19V44.9h23.37a27.22,27.22,0,0,1,11.88,2.48,18.67,18.67,0,0,1,8,7,19.26,19.26,0,0,1,2.84,10.36,16.93,16.93,0,0,1-6.14,13.69q-6.12,5.13-16.83,5.13Zm0-10.9h9.25q4.1,0,6.25-2A7.64,7.64,0,0,0,436,64.85a9.43,9.43,0,0,0-2.21-6.55,7.85,7.85,0,0,0-6-2.5h-9.41Z"/><path class="cls-1" d="M481.24,103.46a15.37,15.37,0,0,1-1.28-3.9q-3.75,4.69-10.46,4.7A15.45,15.45,0,0,1,459,100.54a11.86,11.86,0,0,1-4.3-9.35q0-7.08,5.23-10.69t15.2-3.62h4.18V74.57c0-4-1.72-6-5.18-6q-4.83,0-4.83,4.77H455.79a12.14,12.14,0,0,1,5.37-10.24q5.37-3.94,13.69-3.94T488,63.2q4.83,4.06,4.95,11.14V93.61q.07,6,1.85,9.17v.68Zm-8.48-8.85a7.57,7.57,0,0,0,4.2-1.08,6.87,6.87,0,0,0,2.39-2.46v-7h-3.94q-7.08,0-7.07,6.36a3.9,3.9,0,0,0,1.24,3A4.53,4.53,0,0,0,472.76,94.61Z"/><path class="cls-1" d="M526.77,72.21l-4.46-.32q-6.4,0-8.21,4v27.55H500.55V59.94h12.71l.44,5.59q3.42-6.39,9.53-6.39a13.26,13.26,0,0,1,3.78.48Z"/><path class="cls-1" d="M549.45,49.13V59.94h7.16v9.42h-7.16v19.9a5.07,5.07,0,0,0,.89,3.42c.59.64,1.75,1,3.5,1a18.78,18.78,0,0,0,3.37-.25v9.7a25.21,25.21,0,0,1-7.64,1.16q-7,0-10.33-3.29T535.9,91V69.36h-5.55V59.94h5.55V49.13Z"/><path class="cls-1" d="M584.72,91.23a3.12,3.12,0,0,0-1.81-2.77A27.34,27.34,0,0,0,576,86.29a31.36,31.36,0,0,1-8.37-3,14,14,0,0,1-5-4.44,10.66,10.66,0,0,1-1.73-6,12,12,0,0,1,5-9.87q4.95-3.89,12.95-3.88,8.61,0,13.83,3.9a12.19,12.19,0,0,1,5.23,10.26H584.28q0-5.23-5.51-5.23a5.48,5.48,0,0,0-3.58,1.18,3.71,3.71,0,0,0-1.45,3,3.37,3.37,0,0,0,1.77,2.94A17,17,0,0,0,581.16,77,48.56,48.56,0,0,1,588,78.73q9.81,3.38,9.81,12.1a11.38,11.38,0,0,1-5.29,9.69q-5.28,3.75-13.69,3.74a23.64,23.64,0,0,1-10-2A16.57,16.57,0,0,1,562,96.78a12.33,12.33,0,0,1-2.45-7.28h12.66a5.27,5.27,0,0,0,2,4.41,8.27,8.27,0,0,0,4.94,1.38,6.5,6.5,0,0,0,4.16-1.12A3.59,3.59,0,0,0,584.72,91.23Z"/></svg>