<svg id="Layer_1" height="512" viewBox="0 0 512 512" width="512" xmlns="http://www.w3.org/2000/svg"><g><g><g><path d="m104 197.333c-4.418 0-8-3.582-8-8v-5.333c0-13.233-10.767-24-24-24-4.418 0-8-3.582-8-8s3.582-8 8-8c22.056 0 40 17.944 40 40v5.333c0 4.419-3.582 8-8 8z" fill="#353744"/></g><g><path d="m136 176c-12.296 0-23.507 4.629-32 12.232-8.493-7.603-19.704-12.232-32-12.232-26.51 0-48 21.49-48 48 0 45.333 32 80 56 80s24 0 24 0 0 0 24 0 56-34.667 56-80c0-26.51-21.49-48-48-48z" fill="#91b945"/></g><g><circle cx="64" cy="208" fill="#afd763" r="16"/></g><g><path d="m144 112c-22.091 0-40 17.909-40 40v8h8c22.091 0 40-17.909 40-40 0-4.418-3.582-8-8-8z" fill="#69a041"/></g></g><g><g><path d="m272 128c-8.837 0-16-7.164-16-16 0-14.592 5.683-28.311 16-38.627l9.373-9.373c10.318-10.318 24.036-16 38.627-16 8.837 0 16 7.164 16 16s-7.163 16-16 16c-6.044 0-11.726 2.354-16 6.627l-9.373 9.373c-4.273 4.274-6.627 9.956-6.627 16 0 8.836-7.163 16-16 16z" fill="#4b8c41"/></g><g><path d="m208 128c-8.837 0-16-7.164-16-16 0-6.044-2.354-11.726-6.627-16l-9.373-9.373c-4.274-4.273-9.956-6.627-16-6.627-8.837 0-16-7.164-16-16s7.163-16 16-16c14.591 0 28.309 5.682 38.627 16l9.373 9.373c10.317 10.316 16 24.035 16 38.627 0 8.836-7.163 16-16 16z" fill="#69a041"/></g><g><path d="m248 128c-8.837 0-16-7.164-16-16v-21.49c0-21.368 8.321-41.458 23.432-56.568l13.255-13.255c6.248-6.249 16.379-6.249 22.627 0 6.249 6.248 6.249 16.379 0 22.627l-13.255 13.255c-9.066 9.066-14.059 21.12-14.059 33.941v21.49c0 8.836-7.163 16-16 16z" fill="#69a041"/></g><g><path d="m232 128c-8.837 0-16-7.164-16-16v-21.49c0-12.821-4.993-24.875-14.059-33.941l-13.255-13.255c-6.249-6.248-6.249-16.379 0-22.627 6.248-6.249 16.379-6.249 22.627 0l13.255 13.254c15.111 15.111 23.432 35.201 23.432 56.569v21.49c0 8.836-7.163 16-16 16z" fill="#91b945"/></g><g><path d="m320 384v-240c0-17.673-14.327-32-32-32h-96c-17.673 0-32 14.327-32 32v240z" fill="#faa037"/></g><g><path d="m320 384v-240h-64c-8.836 0-16 7.163-16 16v224z" fill="#f57828"/></g><g><path d="m200 192h-40v-16h40c4.418 0 8 3.582 8 8 0 4.418-3.582 8-8 8z" fill="#f57828"/></g><g><path d="m200 280h-40v-16h40c4.418 0 8 3.582 8 8 0 4.418-3.582 8-8 8z" fill="#f57828"/></g><g><path d="m200 368h-40v-16h40c4.418 0 8 3.582 8 8 0 4.418-3.582 8-8 8z" fill="#f57828"/></g><g><path d="m280 240h40v-16h-40c-4.418 0-8 3.582-8 8 0 4.418 3.582 8 8 8z" fill="#d65a0a"/></g><g><path d="m280 320h40v-16h-40c-4.418 0-8 3.582-8 8 0 4.418 3.582 8 8 8z" fill="#d65a0a"/></g></g><g><g><path d="m384 152c-4.418 0-8-3.582-8-8v-8c0-22.056 17.944-40 40-40 4.418 0 8 3.582 8 8s-3.582 8-8 8c-13.233 0-24 10.766-24 24v8c0 4.418-3.582 8-8 8z" fill="#4b8c41"/></g><g><circle cx="384" cy="240" fill="#e1322d" r="96"/></g><g><path d="m352 240h-64c0-53.019 42.981-96 96-96v64c0 17.673-14.327 32-32 32z" fill="#f04b37"/></g><g><circle cx="336" cy="192" fill="#f5826e" r="16"/></g><path d="m440 136h-112c-4.418 0-8 3.582-8 8s3.582 8 8 8h36.686l-10.343 10.343c-3.124 3.124-3.124 8.189 0 11.313 3.125 3.124 8.189 3.124 11.314 0l18.343-18.343 18.343 18.343c1.563 1.562 3.609 2.343 5.657 2.343s4.095-.781 5.657-2.343c3.124-3.124 3.124-8.189 0-11.313l-10.343-10.343h36.686c4.418 0 8-3.582 8-8s-3.582-8-8-8z" fill="#69a041"/></g><g><g><g><path d="m488 320h-464c-4.418 0-8 3.582-8 8v80c0 4.418 3.582 8 8 8h464c4.418 0 8-3.582 8-8v-80c0-4.418-3.582-8-8-8z" fill="#faa01e"/></g><g><path d="m488 320h-464c-4.418 0-8 3.582-8 8h480c0-4.418-3.582-8-8-8z" fill="#facc0a"/></g><g><path d="m488 416h-464c-4.418 0-8-3.582-8-8h480c0 4.418-3.582 8-8 8z" fill="#dc6e1e"/></g><g><path d="m488 328h8v80h-8z" fill="#dc6e1e"/></g><g><path d="m16 328h8v80h-8z" fill="#facc0a"/></g><g><path d="m488 208h-464c-4.418 0-8 3.582-8 8v80c0 4.418 3.582 8 8 8h464c4.418 0 8-3.582 8-8v-80c0-4.418-3.582-8-8-8z" fill="#faa01e"/></g><g><path d="m488 208h-464c-4.418 0-8 3.582-8 8h480c0-4.418-3.582-8-8-8z" fill="#facc0a"/></g><g><path d="m488 304h-464c-4.418 0-8-3.582-8-8h480c0 4.418-3.582 8-8 8z" fill="#dc6e1e"/></g><g><path d="m488 216h8v80h-8z" fill="#dc6e1e"/></g><g><path d="m16 216h8v80h-8z" fill="#facc0a"/></g></g><g><path d="m24 304h16v16h-16z" fill="#faa01e"/></g><g><path d="m472 304h16v16h-16z" fill="#faa01e"/></g><g><circle cx="56" cy="256" fill="#dc6e1e" r="8"/></g><g><circle cx="456" cy="256" fill="#dc6e1e" r="8"/></g><g><circle cx="56" cy="368" fill="#dc6e1e" r="8"/></g><g><circle cx="456" cy="368" fill="#dc6e1e" r="8"/></g></g><g><path d="m40 304h432v16h-432z" fill="#a55023" transform="matrix(-1 0 0 -1 512 624)"/></g><g><g><circle cx="256" cy="384" fill="#69a041" r="112"/></g><g><path d="m152 392c-4.418 0-8-3.582-8-8 0-61.757 50.243-112 112-112 4.418 0 8 3.582 8 8s-3.582 8-8 8c-52.935 0-96 43.065-96 96 0 4.418-3.582 8-8 8z" fill="#afd763"/></g><g><path d="m240 432c-4.095 0-8.189-1.562-11.313-4.687l-32-32c-6.249-6.248-6.249-16.379 0-22.627 6.248-6.249 16.379-6.249 22.627 0l20.686 20.687 52.687-52.686c6.248-6.249 16.379-6.249 22.627 0 6.249 6.248 6.249 16.379 0 22.627l-64 64c-3.125 3.124-7.219 4.686-11.314 4.686z" fill="#d7e6f0"/></g></g></g></svg>