<svg id="Layer_1" viewBox="0 0 64 64" xmlns="http://www.w3.org/2000/svg" data-name="Layer 1"><path d="m56.57 41.28-5.4-20.28a1 1 0 0 0 -1.23-.71l-2.94.77-5.17-19.31a1 1 0 0 0 -1.22-.75l-19.32 5.22a1 1 0 0 0 -.71 1.22l5.42 20.28 5.44 20.28a1 1 0 0 0 1.23.71l23.2-6.22a1 1 0 0 0 .7-1.21zm-24.75-35.52 1.55 5.8-3.86 1-1.51-5.76a1 1 0 0 0 -.13-.26l4-1.07a1 1 0 0 0 -.05.29zm-5.82 1.24a1 1 0 0 0 0 .29l1.81 6.76a1 1 0 0 0 1.22.71l5.8-1.55a1 1 0 0 0 .74-1.21l-1.82-6.75a1 1 0 0 0 -.13-.25l6.53-1.75 4.92 18.35-10 2.68-7.39 2-4.91-18.39zm7.11 39.51-4.9-18.34 18.35-4.92 2.94-.79 4.88 18.36z"/><path d="m47.5 47.56-14.81 4a8 8 0 0 0 -2.63-2.46 8.1 8.1 0 0 0 -.91-.44l-9.39-35-1-3.86a6 6 0 1 0 -11.63 3.03 1 1 0 1 0 1.93-.52 4 4 0 1 1 7.73-2.07l.3 1.12a3.25 3.25 0 0 0 -1 .1 2.78 2.78 0 0 0 -2.15 2.24 3.69 3.69 0 0 0 0 1.51l4.56 16.85-3.5 4.77a1 1 0 0 0 -.16.85l3.88 14.49a1 1 0 0 0 .16.33 7.93 7.93 0 0 0 -.54 5.57 8 8 0 0 0 15.6-.66l15.2-4.08a2.92 2.92 0 0 0 2.12-3.67 3 3 0 0 0 -3.76-2.1zm-31.6-33.49c.05-.27.17-.54.7-.68a.91.91 0 0 1 1.22.7l.26 1 8.84 33a7.92 7.92 0 0 0 -2.06 0l-9-33.39a1.72 1.72 0 0 1 .04-.63zm4.42 36.37-1.49-5.55 2.9-.78 1.21 4.53a7.9 7.9 0 0 0 -2.62 1.8zm-1.16-15.91 2.05 7.65-2.9.78-1.43-5.33zm12.1 24.47a6 6 0 1 1 -6.75-8.8 6 6 0 0 1 1.56-.2 6 6 0 0 1 5.19 9zm17.36-7.6-14.62 3.91a8.08 8.08 0 0 0 -.24-1.38c-.05-.2-.12-.39-.18-.58l14.42-3.86a1 1 0 0 1 1.31.69.92.92 0 0 1 -.7 1.22z"/><path d="m29.87 55a3.94 3.94 0 1 0 -2.79 4.83 3.95 3.95 0 0 0 2.79-4.83zm-3.3 2.9a1.94 1.94 0 1 1 1.37-2.38 1.94 1.94 0 0 1 -1.38 2.41z"/><path d="m40.75 29.37h-.05a1 1 0 0 0 -.28-.13h-.1a1 1 0 0 0 -.44 0 1.12 1.12 0 0 0 -.63.54v.05l-1.86 4.64a1 1 0 1 0 1.86.75l.74-1.86 1.29 4.83a1 1 0 1 0 1.93-.52l-1.29-4.83 1.52 1.16a1 1 0 0 0 1.23-1.57z"/></svg>