<?xml version="1.0" encoding="iso-8859-1"?>
<!-- Generator: Adobe Illustrator 19.0.0, SVG Export Plug-In . SVG Version: 6.00 Build 0)  -->
<svg version="1.1" id="Capa_1" xmlns="http://www.w3.org/2000/svg" xmlns:xlink="http://www.w3.org/1999/xlink" x="0px" y="0px"
	 viewBox="0 0 511.998 511.998" style="enable-background:new 0 0 511.998 511.998;" xml:space="preserve">
<g>
	<g>
		<path d="M253.705,0.02c-69.503,1.227-125.667,58.147-125.667,127.938v90.79c0,4.136,3.29,7.619,7.426,7.634
			c0.028,0,0.055,0,0.081,0c0.027,0,0.053,0,0.079,0c4.135-0.016,7.426-3.499,7.426-7.634v-89.454
			c0-63.386,51.602-115.389,114.978-114.266c61.346,1.087,110.917,51.328,110.917,112.929v90.79c0,4.135,3.29,7.618,7.426,7.634
			c0.026,0,0.053,0,0.079,0c0.027,0,0.053,0,0.079,0c4.135-0.016,7.426-3.499,7.426-7.634v-89.284
			C383.955,57.658,325.499-1.248,253.705,0.02z"/>
	</g>
</g>
<g>
	<g>
		<path d="M146.497,322.551c0-7.224,5.963-10.434,14.333-10.434c9.746,0,12.727,4.357,15.823,4.357c3.44,0,5.045-4.242,5.045-6.535
			c0-6.307-13.415-8.256-20.868-8.256c-12.268,0-26.486,5.045-26.486,22.015c0,27.519,37.264,19.607,37.264,39.902
			c0,8.255-6.191,12.154-14.448,12.153c-12.727,0-15.479-9.058-19.607-9.058c-2.866,0-5.274,3.784-5.274,6.536
			c0,5.733,10.434,13.53,25.34,13.53c15.136,0,26.143-8.026,26.143-24.423C183.762,331.838,146.497,339.521,146.497,322.551z"/>
	</g>
</g>
<g>
	<g>
		<path d="M242.009,302.026c-2.981,0-6.077,1.147-6.077,3.899v31.646h-28.55v-31.646c0-2.752-2.981-3.899-6.077-3.899
			c-2.981,0-6.077,1.147-6.077,3.899v75.905c0,2.637,3.096,4.013,6.077,4.013c3.096,0,6.077-1.376,6.077-4.013v-34.627h28.55v34.627
			c0,2.637,3.096,4.013,6.077,4.013c3.096,0,6.077-1.376,6.077-4.013v-75.905C248.086,303.173,245.105,302.026,242.009,302.026z"/>
	</g>
</g>
<g>
	<g>
		<path d="M288.103,302.027c-14.562,0-25.684,6.995-25.684,25.57v33.366c0,18.575,11.121,25.569,25.684,25.569
			c14.447,0,25.798-6.994,25.798-25.569v-33.366C313.901,309.021,302.55,302.027,288.103,302.027z M301.747,360.963
			c0,10.09-5.16,14.791-13.645,14.791c-8.6,0-13.53-4.701-13.53-14.791v-33.366c0-10.09,4.93-14.791,13.53-14.791
			c8.485,0,13.645,4.701,13.645,14.791V360.963z"/>
	</g>
</g>
<g>
	<g>
		<path d="M355.178,302.027h-22.359c-2.866,0-4.701,1.835-4.701,3.899v75.905c0,2.637,3.096,4.013,6.077,4.013
			c3.096,0,6.077-1.376,6.077-4.013V353.51h14.218c14.448,0,25.799-6.994,25.799-25.34v-0.917
			C380.289,308.792,369.281,302.027,355.178,302.027z M368.136,328.972c0,10.09-5.16,14.906-13.645,14.906h-14.218v-31.072h14.218
			c8.486,0,13.645,4.701,13.645,14.791V328.972z"/>
	</g>
</g>
<g>
	<g>
		<path d="M348.906,153.324H163.09c-4.145-0.001-7.505,3.36-7.505,7.505c0,4.145,3.36,7.505,7.505,7.505h185.816
			c4.145,0,7.505-3.36,7.505-7.505S353.051,153.324,348.906,153.324z"/>
	</g>
</g>
<g>
	<g>
		<path d="M454.104,487.886l-17.953-313.061c-0.692-12.057-10.694-21.502-22.771-21.502h-9.384c-4.145,0-7.505,3.36-7.505,7.505
			c0,4.145,3.36,7.505,7.505,7.505h9.384c4.129,0,7.548,3.229,7.785,7.35l17.938,312.797c0.119,2.072-0.471,4.162-1.814,5.744
			c-1.51,1.778-3.645,2.764-5.955,2.764H80.927c-2.075,0-4.129-0.709-5.631-2.142c-1.688-1.61-2.549-3.797-2.416-6.103
			l17.953-313.06c0.237-4.122,3.656-7.351,7.785-7.351h9.384c4.145,0,7.505-3.36,7.505-7.505s-3.36-7.505-7.505-7.505h-9.384
			c-12.077,0-22.079,9.445-22.771,21.502l-17.953,313.06c-0.358,6.239,1.897,12.422,6.188,16.965
			c4.29,4.543,10.335,7.149,16.583,7.149h350.67c6.249,0,12.293-2.606,16.583-7.149
			C452.206,500.308,454.461,494.124,454.104,487.886z"/>
	</g>
</g>
<g>
</g>
<g>
</g>
<g>
</g>
<g>
</g>
<g>
</g>
<g>
</g>
<g>
</g>
<g>
</g>
<g>
</g>
<g>
</g>
<g>
</g>
<g>
</g>
<g>
</g>
<g>
</g>
<g>
</g>
</svg>
