<svg id="Capa_1" enable-background="new 0 0 609.603 609.603" height="512" viewBox="0 0 609.603 609.603" width="512" xmlns="http://www.w3.org/2000/svg"><g><g id="Layer_32"><g><path d="m367.796 144.524 4.702-12.651c-21.048-7.725-46.687 2.351-68.519 27.094l9.964 8.845c18.138-20.377 38.29-29.11 53.853-23.288z"/><path d="m388.732 95.71 4.59-12.539c-20.936-7.837-46.575 2.351-68.519 26.982l10.076 8.957c18.026-20.377 38.179-29.11 53.853-23.4z"/><path d="m578.167 87.537c-3.247-4.031-8.061-6.494-13.211-6.83-6.382-.448-12.651 1.008-18.249 4.142 1.567-4.031 2.351-8.285 2.239-12.651-.224-7.501-3.471-13.883-8.845-17.242s-12.539-3.695-19.481-.784c-3.359 1.567-6.382 3.583-9.069 6.046.112-3.919-.56-7.837-1.903-11.532-2.575-7.053-7.613-11.98-13.883-13.547-8.733-2.127-18.025 2.463-24.183 12.204-2.239 3.583-3.919 7.501-4.926 11.644 0 .224-.112.336-.112.56l-12.427 79.491c-3.135.672-6.158 1.679-9.069 2.911-11.868 5.15-22.84 14.891-30.789 27.43l-6.83 10.748c2.575-6.718 5.038-12.987 6.941-18.249 13.547-36.723 19.033-69.303 15.898-94.382s-14.779-41.537-32.58-48.143c-17.802-6.606-37.73-1.12-55.98 15.45s-35.827 45.232-49.374 81.954c-1.903 5.15-3.919 10.636-5.934 16.346l-9.069-16.682c.112-.448.112-1.008.112-1.455v-25.862c0-3.695-3.023-6.718-6.718-6.718h-44.336c-9.74-9.181-21.832-14.891-34.148-15.898-.56-8.621-2.799-17.018-6.606-24.855-6.382-14.219-17.578-25.751-31.461-32.692-13.656-6.381-27.986-6.941-40.414-1.343-18.697-13.211-44.56-8.733-57.771 9.852-4.478 6.27-7.053 13.771-7.501 21.496-21.048 14.443-27.43 46.015-14.331 73.893 3.583 7.837 8.733 14.891 14.891 20.936-11.644 16.682-12.875 40.865-2.799 62.361 5.822 12.987 15.674 23.735 27.99 30.789-2.351 13.995-.336 28.438 5.822 41.201l1.344 2.575h-.672c-2.575 1.008-4.366 3.583-4.366 6.382v303.747c0 15.898 11.868 28.774 26.31 28.774h326.921c15.115 0 27.318-13.435 27.318-29.893v-304.978c0-.672 0-1.344-.224-1.903l34.595-54.412c10.524-16.682 13.995-34.707 10.636-49.038l66.616-45.008.448-.336c3.359-2.687 6.158-5.934 8.509-9.517 6.045-9.628 6.381-19.929.671-26.982zm-98.412-25.527c.672-2.687 1.679-5.262 3.247-7.501 2.799-4.478 6.606-7.053 9.517-6.27 2.911.784 4.031 3.807 4.59 5.038 1.344 4.254 1.455 8.733.336 12.987l-15.898 46.687-13.323 25.639h-.448zm-122.036 206.005h-1.455l-.448.224-.448.224-.448.224-.448.336-.336.224-.336.448h-.112l-6.83 7.501-12.763 14.443-17.802-20.265c-1.232-1.455-3.135-2.351-5.038-2.239l-1.903.224-.896.336c-.896.448-1.567 1.008-2.239 1.679l-9.964 11.532-.336.448-7.053 8.061-18.585-21.16c-1.344-1.455-3.135-2.239-5.038-2.239-1.903 0-3.807.784-5.15 2.239l-14.443 16.682-3.807 4.478-6.382-7.277-1.567-3.583c-.56-2.911-.896-5.822-.896-8.733.112-10.412 3.583-20.601 9.964-28.886l14.331-.784 1.567 14.219c.224 2.463 1.903 4.59 4.254 5.486s5.038.448 6.941-1.232l12.316-11.308 8.509 19.817c1.12 2.351 3.471 4.031 6.046 4.142h.224c2.575 0 4.814-1.455 5.934-3.807l10.188-20.824 18.473 13.099c2.015 1.344 4.59 1.567 6.718.56 2.127-1.008 3.695-3.023 3.919-5.374l2.015-21.496c6.494 5.822 11.42 13.211 14.331 21.384 1.232 3.807 2.015 7.725 2.351 11.644h-.336l-.448-.224h-2.575zm-235.786 3.359-11.42 13.211h-.112v-41.425l121.812-54.076v45.791c-7.613 9.852-11.98 21.832-12.651 34.26h-.448c-1.903 0-3.807.784-5.038 2.239l-17.354 20.041-18.585-21.16c-1.232-1.455-3.135-2.239-5.038-2.239-1.903 0-3.807.784-5.15 2.239l-18.249 21.16-17.578-20.041c-1.344-1.455-3.247-2.239-5.15-2.239-1.904 0-3.807.784-5.039 2.239zm17.69-149.689h120.02l-20.824 39.074c-2.239 4.031-4.031 8.397-5.038 12.875l-123.379 54.86v-42.545c0-6.606 1.679-12.987 4.926-18.697h.112zm153.496 111.511 10.86-7.949-5.374-7.389h5.038l2.687.336h.336l2.463.448h.784l2.015.336h.784l2.687.672h.336l2.239.56.896.224 1.903.672.672.224 2.463.896.56.224 1.903.784.784.336 1.903.896.56.336 2.239 1.12-1.791 18.137-15.45-10.972c-1.567-1.12-3.583-1.455-5.486-1.008s-3.583 1.791-4.366 3.583l-7.277 14.779-6.494-15.003c-.784-2.015-2.575-3.471-4.702-3.919l-1.455-.224c-1.679 0-3.247.672-4.478 1.791l-9.629 8.733-.784-7.501c-.336-3.583-3.471-6.158-7.053-5.934l-4.031.224 2.127-1.344.448-.224 2.463-1.344.784-.336 2.911-1.455h.336l2.687-1.12.784-.224 3.135-1.12h.224l3.023-.784.784-.224 3.247-.784h.224l.896-.224zm11.756-111.847c12.875-34.595 28.662-61.13 45.791-76.58 7.949-7.165 19.257-14.667 31.684-14.667 3.583 0 7.277.672 10.636 1.903 16.57 6.046 22.168 23.623 23.959 37.282 2.911 22.84-2.351 53.181-15.226 87.888-8.621 23.4-23.623 60.682-35.155 84.641-4.142-7.277-9.74-13.771-16.234-19.033-9.852-8.061-21.608-13.547-34.036-16.234 14.331-12.092 27.654-14.443 40.305-9.74l4.702-12.651c-15.898-5.822-34.372-1.455-51.949 11.644v-7.502c0-8.733-2.351-17.354-6.606-24.967l-7.725-14.219c3.024-8.844 6.271-18.025 9.854-27.765zm-24.519 28.997 8.845 16.234 1.791 3.247c3.247 5.598 4.926 11.868 4.926 18.361v16.122h-6.829l-16.458-22.504-10.86 7.837 12.539 17.354-1.567.448-2.463.672-1.791.672-2.351.784-1.791.784-2.351.896-1.679.784-2.239 1.12-1.679.896-2.127 1.12-1.679 1.008-2.015 1.344-1.679 1.008-1.903 1.455-1.344 1.008v-32.696c0-6.494 1.679-12.763 4.926-18.361l20.153-37.394zm-16.347-42.097h-121.7v-12.427h121.7zm-205.557 82.179c-8.957-19.033-7.053-40.305 4.702-52.845 1.344-1.344 2.015-3.135 1.903-5.038-.224-1.903-1.12-3.583-2.575-4.814-6.941-5.486-12.427-12.539-16.234-20.601-10.748-22.952-5.374-48.702 12.204-58.667 2.239-1.232 3.583-3.583 3.471-6.046 0-.336-.112-.672-.112-1.008 0-15.45 12.539-27.99 27.99-27.99 6.83 0 13.547 2.575 18.585 7.165 2.239 1.903 5.374 2.239 7.949.784l2.239-1.232c9.069-4.254 19.593-3.919 29.781 1.008 10.188 4.926 19.593 14.331 25.191 26.198 3.807 7.949 5.598 16.682 5.486 25.527 0 1.903.672 3.695 2.015 5.038 1.344 1.344 3.247 2.015 5.15 1.903 5.374-.336 10.748.56 15.786 2.575h-38.85c1.679-8.621.56-17.466-3.135-25.415-1.567-3.359-5.598-4.814-8.957-3.247s-4.814 5.598-3.247 8.957c2.911 6.158 3.471 13.211 1.567 19.705h-13.771c-3.695 0-6.718 3.023-6.718 6.718v9.964l-10.412-22.168c-1.567-3.359-5.598-4.814-8.957-3.247s-4.814 5.598-3.247 8.957l13.771 29.221c-8.173 2.911-16.906 3.359-25.303 1.232-9.293-2.575-16.458-8.173-20.153-15.898-1.232-3.471-5.15-5.262-8.621-4.031s-5.262 5.15-4.031 8.621c.112.448.336.784.56 1.232 5.374 11.42 15.562 19.593 28.774 23.176 4.59 1.12 9.293 1.791 13.995 1.791 5.822-.112 11.644-1.008 17.242-2.687l-18.921 35.603c-.672 1.232-1.232 2.351-1.791 3.583-6.046-2.463-10.636-6.382-13.099-11.644-1.567-3.359-5.598-4.814-8.957-3.247s-4.814 5.598-3.247 8.957c4.142 8.621 11.42 15.115 21.272 18.921-.448 2.799-.784 5.71-.784 8.621v84.753c-1.791-2.687-3.359-5.374-4.702-8.285-5.71-12.092-7.053-25.639-3.807-37.282 1.008-3.247-.672-6.606-3.695-7.949-11.08-5.037-20.597-14.778-26.307-26.869zm293.557 405.74h-249.333c-7.053 0-12.875-6.829-12.875-15.338v-285.832l7.165 8.173 2.575 2.911c1.232 1.455 3.135 2.351 5.038 2.351h.112c1.903 0 3.807-.896 5.038-2.351l.672-.896 3.135-3.583 9.405-10.748 4.142-4.814 17.578 20.041c1.232 1.455 3.135 2.351 5.038 2.351 1.903 0 3.807-.896 5.038-2.351l18.361-21.16 18.585 21.16c1.232 1.455 3.135 2.351 5.038 2.351 2.015 0 3.807-.896 5.15-2.351l17.354-20.041 12.987 14.891 4.59 5.15c1.232 1.455 3.135 2.351 5.038 2.351 1.344 0 2.687-.448 3.807-1.232.448-.336.896-.672 1.232-1.12l18.361-21.16 18.585 21.16c1.12 1.344 2.687 2.127 4.366 2.239h.672c1.903 0 3.807-.896 5.038-2.351l2.015-2.239 13.435-15.45h.112l1.791-2.239 17.69 20.041c1.232 1.455 3.023 2.239 4.926 2.351h.112c1.903 0 3.695-.784 4.926-2.239l13.099-14.219zm26.087 0 25.975-20.377 21.72 20.377zm65.384-16.458c.112 4.031-1.232 7.949-3.695 11.196l-26.758-25.191v-252.132h-13.435v248.55l-34.148 26.982v-296.245l11.196 13.211c1.344 1.455 3.135 2.351 5.15 2.351 1.903 0 3.807-.896 5.038-2.351l17.354-20.041 17.69 20.041c1.232 1.455 3.135 2.351 5.038 2.351 1.903 0 3.807-.896 5.038-2.351l11.532-13.323zm39.298-373.496c-2.127-1.679-4.366-3.359-6.718-4.814-8.621-5.598-18.473-8.957-28.662-9.852l-1.008 13.323c8.061.784 15.674 3.471 22.504 7.837 2.463 1.567 4.702 3.247 6.829 5.15l-40.081 62.921h.448l-9.293 10.636-17.578-20.041c-1.232-1.455-3.135-2.239-5.038-2.239-1.903 0-3.807.784-5.038 2.239l-17.354 20.041-8.061-9.405c1.344-7.613 1.232-15.45-.448-23.064l25.191-39.746c6.606 1.12 12.987 3.583 18.585 7.277 3.919 2.463 7.389 5.262 10.524 8.621l9.852-9.069c-3.919-4.143-8.285-7.837-13.099-10.86-5.598-3.583-11.756-6.27-18.137-8.061l19.369-30.453c6.494-10.412 15.338-18.249 24.855-22.392l2.127-.784c3.135-1.232 6.606-1.903 9.964-1.903 3.583-.112 7.165.896 10.3 2.799l7.165 4.478c5.598 3.583 8.733 10.188 9.405 18.137.674 7.952-1.453 19.259-6.603 29.224zm3.359-64.825 7.837-23.064 22.392-43.104c2.351-3.695 5.71-6.718 9.628-8.733 1.344-.56 4.59-1.679 6.83-.224 2.239 1.455 2.687 4.926 2.687 6.27 0 4.478-1.344 8.733-3.807 12.427l-35.827 47.023zm79.939-34.035c-1.455 2.239-3.247 4.366-5.374 6.046l-64.153 43.328-1.344-1.791 10.636-13.995 43.44-41.649c4.59-3.695 10.076-5.71 14.331-5.15 1.567.112 3.023.784 4.143 1.903 1.904 2.239 1.232 6.829-1.679 11.308z"/></g></g></g></svg>