<?xml version="1.0" encoding="UTF-8"?>
<svg xmlns="http://www.w3.org/2000/svg" xmlns:xlink="http://www.w3.org/1999/xlink" version="1.1" id="Capa_1" x="0px" y="0px" viewBox="0 0 511.995 511.995" style="enable-background:new 0 0 511.995 511.995;" xml:space="preserve" width="512" height="512">
<g>
	<g>
		<path style="fill:#DBEDFF;" d="M263.392,483.023l13.833,4.333l5.98-4.333c4.506-7.417,4.181-17.15-1.562-24.313l-34.698-43.276&#10;&#9;&#9;&#9;c-7.152-8.921-12.245-19.312-14.913-30.43l-11.682-49.356l-9.628,2.927l-45.033,25.988L263.392,483.023z"/>
		<path style="fill:#DBEDFF;" d="M25.808,354.875l5.667,3.648l14.25,1.125l42.77-24.525l-27.27-45.155l-7.12-4.183l-29.936,17.284&#10;&#9;&#9;&#9;c-11.71,6.761-15.722,21.734-8.961,33.444L25.808,354.875z"/>
		<path style="fill:#B5DCFF;" d="M259.127,476.443l-90.413-112.766c0.004-0.002-0.196-0.231-0.498-0.573l-24.118,13.918&#10;&#9;&#9;&#9;l-3.248,3.125c-0.017,0.01,3.214,3.616,3.197,3.625l90.413,112.766c7.34,9.154,20.71,10.625,29.864,3.285l14.033-11.251&#10;&#9;&#9;&#9;c1.991-1.596,3.595-3.489,4.848-5.55C274.831,486.187,265.03,483.806,259.127,476.443z"/>
		<path style="fill:#B5DCFF;" d="M86.961,332.584l-1.268,3.108l-32.6,18.822c-9.016,5.205-19.804,4.54-27.956-0.799l14.667,25.404&#10;&#9;&#9;&#9;c6.761,11.71,21.734,15.722,33.444,8.961l29.937-17.284l2.763-6.773L86.961,332.584z"/>
		<path style="fill:#DBEDFF;" d="M211.662,289.357l143.304-44.464l10.336,3.754L255.225,58.523l-9.202-3.326l-89.492,137.67v13.656&#10;&#9;&#9;&#9;l52.589,88.422C210.668,291.466,211.662,289.357,211.662,289.357z"/>
		<path style="fill:#B5DCFF;" d="M211.662,288.357c0,0-1.104,2.342-2.797,6.16l16.359,27.506l9.644,6.529l163.972-8.668v-13.312&#10;&#9;&#9;&#9;l-34.271-59.191l-9.603-3.488L211.662,288.357z"/>
		<path style="fill:#FF3581;" d="M91.725,347.148l11.875,1.746l9.25-1.371l96.625-55.75l2.188-3.416l-55.131-95.49l-95.602,55.196&#10;&#9;&#9;&#9;c-11.848,6.84-15.908,21.991-9.067,33.839l35.882,62.15L91.725,347.148z"/>
		<path style="fill:#E50255;" d="M211.662,288.357l-96.736,55.851c-9.112,5.26-20.116,4.263-28.046-1.654l18.548,32.126&#10;&#9;&#9;&#9;c6.841,11.848,21.991,15.908,33.839,9.067l95.602-55.196L211.662,288.357z"/>
		<path style="fill:#FFAFE2;" d="M413.7,143.34l-7.356-12.74c-4.798-8.311-15.425-11.159-23.736-6.36l-29.705,17.15l-3.011,5.966&#10;&#9;&#9;&#9;l19,35l8.743,1.871l29.705-17.15C415.651,162.279,418.498,151.651,413.7,143.34z"/>
		<g>
			<path style="fill:#FFAFE2;" d="M94.207,282.21c-2.592,0-5.113-1.345-6.502-3.751c-2.071-3.587-0.842-8.174,2.745-10.245&#10;&#9;&#9;&#9;&#9;l47.32-27.32c3.587-2.07,8.174-0.842,10.245,2.745s0.842,8.174-2.745,10.245l-47.32,27.32&#10;&#9;&#9;&#9;&#9;C96.769,281.886,95.479,282.21,94.207,282.21z"/>
		</g>
		<g>
			<path style="fill:#FFAFE2;" d="M113.457,315.552c-2.592,0-5.113-1.345-6.502-3.751c-2.071-3.587-0.842-8.174,2.745-10.245&#10;&#9;&#9;&#9;&#9;l47.32-27.32c3.587-2.069,8.174-0.843,10.245,2.745c2.071,3.587,0.842,8.174-2.745,10.245l-47.32,27.32&#10;&#9;&#9;&#9;&#9;C116.019,315.228,114.729,315.552,113.457,315.552z"/>
		</g>
		<g>
			<path style="fill:#FFAFE2;" d="M132.707,348.894c-2.592,0-5.113-1.345-6.502-3.751c-2.071-3.587-0.842-8.174,2.745-10.245&#10;&#9;&#9;&#9;&#9;l47.32-27.32c3.587-2.07,8.174-0.843,10.245,2.745c2.071,3.587,0.842,8.174-2.745,10.245l-47.32,27.32&#10;&#9;&#9;&#9;&#9;C135.269,348.57,133.979,348.894,132.707,348.894z"/>
		</g>
		<path style="fill:#FF3581;" d="M361.558,249.19l6.5,2l28-16.5l3.833-7.833l-2.088-7.696v0L280.619,16.191&#10;&#9;&#9;&#9;c-4.798-8.311-15.426-11.158-23.736-6.36l-12.74,7.356c-8.311,4.798-11.159,15.426-6.361,23.737l117.185,202.97L361.558,249.19z"/>
		<path style="fill:#E50255;" d="M449.918,309.426l-52.115-90.265c0.482,6.913-2.888,13.826-9.293,17.524l-13.721,7.922&#10;&#9;&#9;&#9;c-6.406,3.698-14.077,3.161-19.823-0.714l52.115,90.265c4.798,8.311,15.426,11.158,23.737,6.36l12.74-7.355&#10;&#9;&#9;&#9;C451.869,328.364,454.717,317.737,449.918,309.426z"/>
	</g>
	<g>
		<path style="fill:none;stroke:#000000;stroke-width:15;stroke-linecap:round;stroke-linejoin:round;stroke-miterlimit:10;" d="&#10;&#9;&#9;&#9;M24.179,303.069c-11.71,6.761-15.722,21.734-8.961,33.444l24.598,42.605c6.761,11.71,21.734,15.722,33.444,8.961l29.936-17.284&#10;&#9;&#9;&#9;l-49.081-85.01L24.179,303.069z"/>
		
			<polygon style="fill:none;stroke:#000000;stroke-width:15;stroke-linecap:round;stroke-linejoin:round;stroke-miterlimit:10;" points="&#10;&#9;&#9;&#9;246.033,55.197 156.541,192.867 234.879,328.552 398.85,319.884 &#9;&#9;"/>
		<path style="fill:none;stroke:#000000;stroke-width:15;stroke-linecap:round;stroke-linejoin:round;stroke-miterlimit:10;" d="&#10;&#9;&#9;&#9;M382.618,124.24l-29.705,17.15l24.732,42.837l29.705-17.15c8.311-4.798,11.158-15.426,6.36-23.737l-7.356-12.74&#10;&#9;&#9;&#9;C401.556,122.289,390.929,119.441,382.618,124.24z"/>
		
			<line style="fill:none;stroke:#000000;stroke-width:15;stroke-linecap:round;stroke-linejoin:round;stroke-miterlimit:10;" x1="94.21" y1="274.709" x2="141.53" y2="247.389"/>
		
			<line style="fill:none;stroke:#000000;stroke-width:15;stroke-linecap:round;stroke-linejoin:round;stroke-miterlimit:10;" x1="113.46" y1="308.051" x2="160.78" y2="280.731"/>
		
			<line style="fill:none;stroke:#000000;stroke-width:15;stroke-linecap:round;stroke-linejoin:round;stroke-miterlimit:10;" x1="132.71" y1="341.393" x2="180.03" y2="314.073"/>
		<path style="fill:none;stroke:#000000;stroke-width:15;stroke-linecap:round;stroke-linejoin:round;stroke-miterlimit:10;" d="&#10;&#9;&#9;&#9;M242.125,415.434c-7.152-8.921-12.245-19.312-14.913-30.43l-10.965-45.695l-76.97,44.439c-0.017,0.01-0.034,0.016-0.051,0.026&#10;&#9;&#9;&#9;l90.413,112.766c7.34,9.154,20.71,10.625,29.865,3.285l14.033-11.251c9.154-7.339,10.625-20.71,3.286-29.863L242.125,415.434z"/>
		
			<line style="fill:none;stroke:#000000;stroke-width:15;stroke-linecap:round;stroke-linejoin:round;stroke-miterlimit:10;" x1="448.403" y1="114.672" x2="480.425" y2="96.184"/>
		
			<line style="fill:none;stroke:#000000;stroke-width:15;stroke-linecap:round;stroke-linejoin:round;stroke-miterlimit:10;" x1="415.64" y1="78.771" x2="435.315" y2="47.465"/>
		
			<line style="fill:none;stroke:#000000;stroke-width:15;stroke-linecap:round;stroke-linejoin:round;stroke-miterlimit:10;" x1="374.457" y1="57.769" x2="379.959" y2="21.205"/>
		
			<line style="fill:none;stroke:#000000;stroke-width:15;stroke-linecap:round;stroke-linejoin:round;stroke-miterlimit:10;" x1="463.112" y1="160.995" x2="500.062" y2="159.609"/>
		
			<line style="fill:none;stroke:#000000;stroke-width:15;stroke-linecap:round;stroke-linejoin:round;stroke-miterlimit:10;" x1="460.709" y1="207.163" x2="495.126" y2="220.679"/>
		<path style="fill:none;stroke:#000000;stroke-width:15;stroke-linecap:round;stroke-linejoin:round;stroke-miterlimit:10;" d="&#10;&#9;&#9;&#9;M86.125,233.522L60.94,248.062c-11.848,6.84-15.908,21.991-9.067,33.839l53.566,92.779c6.841,11.848,21.991,15.908,33.839,9.067&#10;&#9;&#9;&#9;l95.602-55.196l-78.338-135.685l-40.106,23.155"/>
		<path style="fill:none;stroke:#000000;stroke-width:15;stroke-linecap:round;stroke-linejoin:round;stroke-miterlimit:10;" d="&#10;&#9;&#9;&#9;M402.541,227.348L280.629,16.191c-4.798-8.311-15.426-11.158-23.736-6.36l-12.74,7.356c-8.311,4.798-11.159,15.426-6.361,23.737&#10;&#9;&#9;&#9;l169.299,293.235c4.798,8.311,15.426,11.158,23.737,6.36l12.74-7.355c8.311-4.798,11.158-15.426,6.36-23.737l-29.888-51.767"/>
	</g>
</g>















</svg>
