<svg height="512" viewBox="0 0 24 24" width="512" xmlns="http://www.w3.org/2000/svg"><path d="m11.5 2.5v-2a.5.5 0 0 1 1 0v2a.5.5 0 0 1 -1 0zm0 21a.5.5 0 0 0 1 0v-2a.5.5 0 0 0 -1 0zm12-12h-2a.5.5 0 0 0 0 1h2a.5.5 0 0 0 0-1zm-21 1a.5.5 0 0 0 0-1h-2a.5.5 0 0 0 0 1zm15.864 6.571 1.414 1.414a.5.5 0 0 0 .707-.707l-1.414-1.414a.5.5 0 0 0 -.707.707zm-13.435-13.435a.5.5 0 1 0 .707-.707l-1.414-1.414a.5.5 0 1 0 -.707.707zm13.788.146a.5.5 0 0 0 .354-.146l1.414-1.414a.5.5 0 1 0 -.707-.707l-1.414 1.414a.5.5 0 0 0 .353.853zm-15.2 14.7a.5.5 0 0 0 .707 0l1.414-1.414a.5.5 0 1 0 -.707-.707l-1.416 1.417a.5.5 0 0 0 0 .707z"/></svg>