<svg id="outline" height="512" viewBox="0 0 960 960" width="512" xmlns="http://www.w3.org/2000/svg"><path d="m860 830v-484.532l-380-243.59-380 243.59v514.532h120v-350a10 10 0 0 1 10-10h450a10 10 0 0 1 0 20h-440v340h90v-100a10 10 0 0 1 10-10h60v-100a10 10 0 0 1 10-10h140a10 10 0 0 1 10 10v70a10 10 0 0 1 -20 0v-60h-120v90h60a10 10 0 0 1 10 10v70a10 10 0 0 1 -20 0v-60h-120v90h260v-90h-90a10 10 0 0 1 0-20h100a10 10 0 0 1 10 10v100h90v-350a10 10 0 0 1 20 0v350h130a10 10 0 0 1 0 20h-780a10 10 0 0 1 -10-10v-530a10 10 0 0 1 4.6-8.419l390-250a10.006 10.006 0 0 1 10.794 0l390 250a10 10 0 0 1 4.606 8.419v490a10 10 0 0 1 -20 0zm-300-530h-160a10 10 0 0 0 0 20h160a10 10 0 0 0 0-20zm0 40h-160a10 10 0 0 0 0 20h160a10 10 0 0 0 0-20zm0 40h-160a10 10 0 0 0 0 20h160a10 10 0 0 0 0-20z"/></svg>