<svg id="Layer_1" height="512" viewBox="0 0 91 91" width="512" xmlns="http://www.w3.org/2000/svg" data-name="Layer 1"><path d="m42.68 87.57h-21.3a1.24 1.24 0 0 1 -1.24-1.23v-18.75a1.24 1.24 0 0 1 1.24-1.23h24a1.24 1.24 0 0 1 1.24 1.23v16a4 4 0 0 1 -3.94 3.98zm-20.06-2.47h20.06a1.49 1.49 0 0 0 1.49-1.49v-14.78h-21.55z"/><path d="m30 78a1.3 1.3 0 0 1 -.57-.14 1.23 1.23 0 0 1 -.66-1.1v-9.17a1.23 1.23 0 0 1 1.23-1.23h6.5a1.23 1.23 0 0 1 1.24 1.23v9.17a1.24 1.24 0 0 1 -.63 1.08 1.22 1.22 0 0 1 -1.25 0l-2.78-1.74-2.35 1.67a1.28 1.28 0 0 1 -.73.23zm3-4.61a1.24 1.24 0 0 1 .64.18l1.6 1v-5.74h-4v5.54l1.07-.76a1.25 1.25 0 0 1 .69-.22z"/><path d="m66.94 87.57h-21.31a1.23 1.23 0 0 1 -1.23-1.23v-18.75a1.23 1.23 0 0 1 1.23-1.23h24a1.23 1.23 0 0 1 1.24 1.23v16a4 4 0 0 1 -3.93 3.98zm-20.07-2.47h20.07a1.49 1.49 0 0 0 1.49-1.49v-14.78h-21.56z"/><path d="m54.27 78a1.26 1.26 0 0 1 -.57-.14 1.24 1.24 0 0 1 -.67-1.1v-9.17a1.23 1.23 0 0 1 1.24-1.23h6.5a1.24 1.24 0 0 1 1.23 1.23v9.17a1.25 1.25 0 0 1 -.64 1.08 1.22 1.22 0 0 1 -1.25 0l-2.77-1.74-2.34 1.67a1.23 1.23 0 0 1 -.73.23zm3-4.61a1.25 1.25 0 0 1 .65.18l1.59 1v-5.74h-4v5.54l1.07-.76a1.22 1.22 0 0 1 .71-.22z"/><path d="m54.81 68.83h-21.3a1.23 1.23 0 0 1 -1.24-1.24v-18.73a1.23 1.23 0 0 1 1.24-1.24h24a1.23 1.23 0 0 1 1.23 1.24v16a4 4 0 0 1 -3.93 3.97zm-20.07-2.47h20.07a1.49 1.49 0 0 0 1.49-1.49v-14.78h-21.56z"/><path d="m42.14 59.25a1.28 1.28 0 0 1 -.57-.13 1.25 1.25 0 0 1 -.67-1.12v-9.14a1.24 1.24 0 0 1 1.24-1.24h6.5a1.24 1.24 0 0 1 1.24 1.24v9.14a1.24 1.24 0 0 1 -.64 1.08 1.22 1.22 0 0 1 -1.25 0l-2.78-1.71-2.36 1.63a1.22 1.22 0 0 1 -.71.25zm3-4.61a1.16 1.16 0 0 1 .64.19l1.59 1v-5.74h-4v5.54l1.07-.76a1.28 1.28 0 0 1 .73-.23z"/><path d="m87 41.79a1.33 1.33 0 0 1 -.5-.11l-30.15-13.33a1.24 1.24 0 1 1 1-2.26l30.18 13.33a1.24 1.24 0 0 1 -.5 2.37z"/><path d="m4 41.79a1.24 1.24 0 0 1 -.5-2.37l30.3-13.33a1.24 1.24 0 1 1 1 2.26l-30.29 13.33a1.1 1.1 0 0 1 -.51.11z"/><path d="m79.19 87.56a1.23 1.23 0 0 1 -1.19-1.23v-48a1.24 1.24 0 1 1 2.47 0v48a1.23 1.23 0 0 1 -1.28 1.23z"/><path d="m11.86 87.56a1.24 1.24 0 0 1 -1.24-1.23v-48a1.24 1.24 0 0 1 2.48 0v48a1.24 1.24 0 0 1 -1.24 1.23z"/><path d="m45.52 45.39a1.24 1.24 0 0 1 -1-.52c-.52-.77-13.69-19.08-13.69-26.82a14.7 14.7 0 1 1 29.39 0c0 7.74-13.14 26.05-13.69 26.82a1.27 1.27 0 0 1 -1.01.52zm0-39.56a12.23 12.23 0 0 0 -12.22 12.22c0 5.3 8.06 18 12.22 24 4.16-6 12.22-18.65 12.22-23.95a12.23 12.23 0 0 0 -12.22-12.27z"/><path d="m45.52 24.79a6.88 6.88 0 1 1 6.89-6.88 6.89 6.89 0 0 1 -6.89 6.88zm0-11.29a4.41 4.41 0 1 0 4.41 4.41 4.42 4.42 0 0 0 -4.41-4.41z"/></svg>